<svg width="444" height="346" viewBox="0 0 444 346" fill="none" xmlns="http://www.w3.org/2000/svg">
<g opacity="0.3">
<path fill-rule="evenodd" clip-rule="evenodd" d="M3.63621 0H2.42394V2.4245H5.29908e-08L0 3.63677H2.42394V6.06135H3.63621V3.63677H6.06135V2.4245H3.63621V0Z" fill="#CC4516"/>
<path fill-rule="evenodd" clip-rule="evenodd" d="M3.63636 21.2147H2.42409V23.6392H0.000152641L0.000152588 24.8515H2.42409V27.2761H3.63636V24.8515H6.0615V23.6392H3.63636V21.2147Z" fill="#CC4516"/>
<path fill-rule="evenodd" clip-rule="evenodd" d="M3.63636 42.4294H2.42409V44.8539H0.000152641L0.000152588 46.0662L2.42409 46.0662V48.4908H3.63636V46.0662L6.0615 46.0662V44.8539H3.63636V42.4294Z" fill="#CC4516"/>
<path fill-rule="evenodd" clip-rule="evenodd" d="M3.63636 63.6442H2.42409V66.0687H0.000152641L0.000152588 67.2809L2.42409 67.2809V69.7055H3.63636V67.2809L6.0615 67.2809V66.0687H3.63636V63.6442Z" fill="#CC4516"/>
<path fill-rule="evenodd" clip-rule="evenodd" d="M3.63636 84.8589H2.42409V87.2834H0.000152641L0.000152588 88.4957L2.42409 88.4957V90.9202H3.63636V88.4957L6.0615 88.4957V87.2834H3.63636V84.8589Z" fill="#CC4516"/>
<path fill-rule="evenodd" clip-rule="evenodd" d="M3.63636 106.074H2.42409V108.498H0.000152641L0.000152588 109.71L2.42409 109.71V112.135H3.63636V109.71L6.0615 109.71V108.498H3.63636V106.074Z" fill="#CC4516"/>
<path fill-rule="evenodd" clip-rule="evenodd" d="M3.63636 127.288H2.42409V129.713H0.000152641L0.000152588 130.925H2.42409V133.35H3.63636V130.925H6.0615V129.713H3.63636V127.288Z" fill="#CC4516"/>
<path fill-rule="evenodd" clip-rule="evenodd" d="M3.63636 148.503H2.42409V150.928H0.000152641L0.000152588 152.14L2.42409 152.14V154.565H3.63636V152.14L6.0615 152.14V150.928H3.63636V148.503Z" fill="#CC4516"/>
<path fill-rule="evenodd" clip-rule="evenodd" d="M3.63636 169.718H2.42409V172.142H0.000152641L0.000152588 173.355H2.42409V175.779H3.63636V173.355H6.0615V172.142H3.63636V169.718Z" fill="#CC4516"/>
<path fill-rule="evenodd" clip-rule="evenodd" d="M3.63636 190.933H2.42409V193.357H0.000152641L0.000152588 194.569H2.42409V196.994H3.63636V194.569H6.0615V193.357H3.63636V190.933Z" fill="#CC4516"/>
<path fill-rule="evenodd" clip-rule="evenodd" d="M3.63636 212.147H2.42409V214.572H0.000152641L0.000152588 215.784H2.42409V218.209H3.63636V215.784H6.0615V214.572H3.63636V212.147Z" fill="#CC4516"/>
<path fill-rule="evenodd" clip-rule="evenodd" d="M3.63636 233.362H2.42409V235.786H0.000152641L0.000152588 236.999H2.42409V239.423H3.63636V236.999H6.0615V235.786H3.63636V233.362Z" fill="#CC4516"/>
<path fill-rule="evenodd" clip-rule="evenodd" d="M3.63636 254.577H2.42409V257.001H0.000152641L0.000152588 258.214H2.42409V260.638H3.63636V258.214H6.0615V257.001H3.63636V254.577Z" fill="#CC4516"/>
<path fill-rule="evenodd" clip-rule="evenodd" d="M3.63636 275.792H2.42409V278.216H0.000152641L0.000152588 279.428H2.42409V281.853H3.63636V279.428H6.0615V278.216H3.63636V275.792Z" fill="#CC4516"/>
<path fill-rule="evenodd" clip-rule="evenodd" d="M3.63636 297.006H2.42409V299.431H0.000152641L0.000152588 300.643H2.42409V303.067H3.63636V300.643H6.0615V299.431H3.63636V297.006Z" fill="#CC4516"/>
<path fill-rule="evenodd" clip-rule="evenodd" d="M3.63636 318.221H2.42409V320.645H0.000152641L0.000152588 321.858L2.42409 321.858V324.282H3.63636V321.858L6.0615 321.858V320.645H3.63636V318.221Z" fill="#CC4516"/>
<path fill-rule="evenodd" clip-rule="evenodd" d="M3.63636 339.436H2.42409V341.86H0.000152641L0.000152588 343.072L2.42409 343.072V345.497H3.63636V343.072L6.0615 343.072V341.86H3.63636V339.436Z" fill="#CC4516"/>
<path fill-rule="evenodd" clip-rule="evenodd" d="M24.851 0H23.6388V2.4245H21.2148L21.2148 3.63677L23.6388 3.63677V6.06135H24.851V3.63677L27.2761 3.63677V2.4245H24.851V0Z" fill="#CC4516"/>
<path fill-rule="evenodd" clip-rule="evenodd" d="M24.851 21.2147H23.6388V23.6392H21.2148L21.2148 24.8515H23.6388V27.2761H24.851V24.8515H27.2761V23.6392H24.851V21.2147Z" fill="#CC4516"/>
<path fill-rule="evenodd" clip-rule="evenodd" d="M24.851 42.4294H23.6388V44.8539H21.2148L21.2148 46.0662H23.6388V48.4908H24.851V46.0662H27.2761V44.8539H24.851V42.4294Z" fill="#CC4516"/>
<path fill-rule="evenodd" clip-rule="evenodd" d="M24.851 63.6442H23.6388V66.0687H21.2148L21.2148 67.2809L23.6388 67.2809V69.7055H24.851V67.2809L27.2761 67.2809V66.0687H24.851V63.6442Z" fill="#CC4516"/>
<path fill-rule="evenodd" clip-rule="evenodd" d="M24.851 84.8589H23.6388V87.2834H21.2148L21.2148 88.4957L23.6388 88.4957V90.9202H24.851V88.4957L27.2761 88.4957V87.2834H24.851V84.8589Z" fill="#CC4516"/>
<path fill-rule="evenodd" clip-rule="evenodd" d="M24.851 106.074H23.6388V108.498H21.2148L21.2148 109.71H23.6388V112.135H24.851V109.71H27.2761V108.498H24.851V106.074Z" fill="#CC4516"/>
<path fill-rule="evenodd" clip-rule="evenodd" d="M24.851 127.288H23.6388V129.713H21.2148L21.2148 130.925L23.6388 130.925V133.35H24.851V130.925L27.2761 130.925V129.713H24.851V127.288Z" fill="#CC4516"/>
<path fill-rule="evenodd" clip-rule="evenodd" d="M24.851 148.503H23.6388V150.928H21.2148L21.2148 152.14L23.6388 152.14V154.564H24.851V152.14L27.2761 152.14V150.928H24.851V148.503Z" fill="#CC4516"/>
<path fill-rule="evenodd" clip-rule="evenodd" d="M24.851 169.718H23.6388V172.142H21.2148L21.2148 173.355H23.6388V175.779H24.851V173.355H27.2761V172.142H24.851V169.718Z" fill="#CC4516"/>
<path fill-rule="evenodd" clip-rule="evenodd" d="M24.851 190.933H23.6388V193.357H21.2148L21.2148 194.569L23.6388 194.569V196.994H24.851V194.569L27.2761 194.569V193.357H24.851V190.933Z" fill="#CC4516"/>
<path fill-rule="evenodd" clip-rule="evenodd" d="M24.851 212.147H23.6388V214.572H21.2148L21.2148 215.784L23.6388 215.784V218.209H24.851V215.784L27.2761 215.784V214.572H24.851V212.147Z" fill="#CC4516"/>
<path fill-rule="evenodd" clip-rule="evenodd" d="M24.851 233.362H23.6388V235.786H21.2148L21.2148 236.999H23.6388V239.423H24.851V236.999H27.2761V235.786H24.851V233.362Z" fill="#CC4516"/>
<path fill-rule="evenodd" clip-rule="evenodd" d="M24.851 254.577H23.6388V257.001H21.2148L21.2148 258.214H23.6388V260.638H24.851V258.214H27.2761V257.001H24.851V254.577Z" fill="#CC4516"/>
<path fill-rule="evenodd" clip-rule="evenodd" d="M24.851 275.792H23.6388V278.216H21.2148L21.2148 279.428H23.6388V281.853H24.851V279.428H27.2761V278.216H24.851V275.792Z" fill="#CC4516"/>
<path fill-rule="evenodd" clip-rule="evenodd" d="M24.851 297.006H23.6388V299.431H21.2148L21.2148 300.643L23.6388 300.643V303.068H24.851V300.643L27.2761 300.643V299.431H24.851V297.006Z" fill="#CC4516"/>
<path fill-rule="evenodd" clip-rule="evenodd" d="M24.851 318.221H23.6388V320.645H21.2148L21.2148 321.858L23.6388 321.858V324.282H24.851V321.858L27.2761 321.858V320.645H24.851V318.221Z" fill="#CC4516"/>
<path fill-rule="evenodd" clip-rule="evenodd" d="M24.851 339.436H23.6388V341.86H21.2148L21.2148 343.072L23.6388 343.072V345.497H24.851V343.072L27.2761 343.072V341.86H24.851V339.436Z" fill="#CC4516"/>
<path fill-rule="evenodd" clip-rule="evenodd" d="M46.0655 0H44.8533V2.4245H42.4294L42.4294 3.63677L44.8533 3.63677V6.06135H46.0655V3.63677L48.4907 3.63677V2.4245H46.0655V0Z" fill="#CC4516"/>
<path fill-rule="evenodd" clip-rule="evenodd" d="M46.0655 21.2147H44.8533V23.6392H42.4294L42.4294 24.8515H44.8533V27.2761H46.0655V24.8515H48.4907V23.6392H46.0655V21.2147Z" fill="#CC4516"/>
<path fill-rule="evenodd" clip-rule="evenodd" d="M46.0655 42.4294H44.8533V44.8539H42.4294L42.4294 46.0662L44.8533 46.0662V48.4908H46.0655V46.0662L48.4907 46.0662V44.8539H46.0655V42.4294Z" fill="#CC4516"/>
<path fill-rule="evenodd" clip-rule="evenodd" d="M46.0655 63.6442H44.8533V66.0687H42.4294L42.4294 67.2809L44.8533 67.2809V69.7055H46.0655V67.2809L48.4907 67.2809V66.0687H46.0655V63.6442Z" fill="#CC4516"/>
<path fill-rule="evenodd" clip-rule="evenodd" d="M46.0655 84.8589H44.8533V87.2834H42.4294L42.4294 88.4957L44.8533 88.4957V90.9202H46.0655V88.4957L48.4907 88.4957V87.2834H46.0655V84.8589Z" fill="#CC4516"/>
<path fill-rule="evenodd" clip-rule="evenodd" d="M46.0655 106.074H44.8533V108.498H42.4294L42.4294 109.71L44.8533 109.71V112.135H46.0655V109.71L48.4907 109.71V108.498H46.0655V106.074Z" fill="#CC4516"/>
<path fill-rule="evenodd" clip-rule="evenodd" d="M46.0655 127.288H44.8533V129.713H42.4294L42.4294 130.925H44.8533V133.35H46.0655V130.925H48.4907V129.713H46.0655V127.288Z" fill="#CC4516"/>
<path fill-rule="evenodd" clip-rule="evenodd" d="M46.0655 148.503H44.8533V150.928H42.4294L42.4294 152.14L44.8533 152.14V154.565H46.0655V152.14L48.4907 152.14V150.928H46.0655V148.503Z" fill="#CC4516"/>
<path fill-rule="evenodd" clip-rule="evenodd" d="M46.0655 169.718H44.8533V172.142H42.4294L42.4294 173.355H44.8533V175.779H46.0655V173.355H48.4907V172.142H46.0655V169.718Z" fill="#CC4516"/>
<path fill-rule="evenodd" clip-rule="evenodd" d="M46.0655 190.933H44.8533V193.357H42.4294L42.4294 194.569H44.8533V196.994H46.0655V194.569H48.4907V193.357H46.0655V190.933Z" fill="#CC4516"/>
<path fill-rule="evenodd" clip-rule="evenodd" d="M46.0655 212.147H44.8533V214.572H42.4294L42.4294 215.784H44.8533V218.209H46.0655V215.784H48.4907V214.572H46.0655V212.147Z" fill="#CC4516"/>
<path fill-rule="evenodd" clip-rule="evenodd" d="M46.0655 233.362H44.8533V235.786H42.4294L42.4294 236.999H44.8533V239.423H46.0655V236.999H48.4907V235.786H46.0655V233.362Z" fill="#CC4516"/>
<path fill-rule="evenodd" clip-rule="evenodd" d="M46.0655 254.577H44.8533V257.001H42.4294L42.4294 258.214H44.8533V260.638H46.0655V258.214H48.4907V257.001H46.0655V254.577Z" fill="#CC4516"/>
<path fill-rule="evenodd" clip-rule="evenodd" d="M46.0655 275.792H44.8533V278.216H42.4294L42.4294 279.428H44.8533V281.853H46.0655V279.428H48.4907V278.216H46.0655V275.792Z" fill="#CC4516"/>
<path fill-rule="evenodd" clip-rule="evenodd" d="M46.0655 297.006H44.8533V299.431H42.4294L42.4294 300.643H44.8533V303.067H46.0655V300.643H48.4907V299.431H46.0655V297.006Z" fill="#CC4516"/>
<path fill-rule="evenodd" clip-rule="evenodd" d="M46.0655 318.221H44.8533V320.645H42.4294L42.4294 321.858L44.8533 321.858V324.282H46.0655V321.858L48.4907 321.858V320.645H46.0655V318.221Z" fill="#CC4516"/>
<path fill-rule="evenodd" clip-rule="evenodd" d="M46.0655 339.436H44.8533V341.86H42.4294L42.4294 343.072L44.8533 343.072V345.497H46.0655V343.072L48.4907 343.072V341.86H46.0655V339.436Z" fill="#CC4516"/>
<path fill-rule="evenodd" clip-rule="evenodd" d="M67.2802 0H66.0679V2.4245H63.644L63.644 3.63677L66.0679 3.63677V6.06135H67.2802V3.63677L69.7053 3.63677V2.4245H67.2802V0Z" fill="#CC4516"/>
<path fill-rule="evenodd" clip-rule="evenodd" d="M67.2802 21.2147H66.0679V23.6392H63.644L63.644 24.8515H66.0679V27.2761H67.2802V24.8515H69.7053V23.6392H67.2802V21.2147Z" fill="#CC4516"/>
<path fill-rule="evenodd" clip-rule="evenodd" d="M67.2802 42.4294H66.0679V44.8539H63.644L63.644 46.0662L66.0679 46.0662V48.4908H67.2802V46.0662L69.7053 46.0662V44.8539H67.2802V42.4294Z" fill="#CC4516"/>
<path fill-rule="evenodd" clip-rule="evenodd" d="M67.2802 63.6442H66.0679V66.0687H63.644L63.644 67.2809L66.0679 67.2809V69.7055H67.2802V67.2809L69.7053 67.2809V66.0687H67.2802V63.6442Z" fill="#CC4516"/>
<path fill-rule="evenodd" clip-rule="evenodd" d="M67.2802 84.8589H66.0679V87.2834H63.644L63.644 88.4957L66.0679 88.4957V90.9202H67.2802V88.4957L69.7053 88.4957V87.2834H67.2802V84.8589Z" fill="#CC4516"/>
<path fill-rule="evenodd" clip-rule="evenodd" d="M67.2802 106.074H66.0679V108.498H63.644L63.644 109.71L66.0679 109.71V112.135H67.2802V109.71L69.7053 109.71V108.498H67.2802V106.074Z" fill="#CC4516"/>
<path fill-rule="evenodd" clip-rule="evenodd" d="M67.2802 127.288H66.0679V129.713H63.644L63.644 130.925H66.0679V133.35H67.2802V130.925H69.7053V129.713H67.2802V127.288Z" fill="#CC4516"/>
<path fill-rule="evenodd" clip-rule="evenodd" d="M67.2802 148.503H66.0679V150.928H63.644L63.644 152.14L66.0679 152.14V154.565H67.2802V152.14L69.7053 152.14V150.928H67.2802V148.503Z" fill="#CC4516"/>
<path fill-rule="evenodd" clip-rule="evenodd" d="M67.2802 169.718H66.0679V172.142H63.644L63.644 173.355H66.0679V175.779H67.2802V173.355H69.7053V172.142H67.2802V169.718Z" fill="#CC4516"/>
<path fill-rule="evenodd" clip-rule="evenodd" d="M67.2802 190.933H66.0679V193.357H63.644L63.644 194.569H66.0679V196.994H67.2802V194.569H69.7053V193.357H67.2802V190.933Z" fill="#CC4516"/>
<path fill-rule="evenodd" clip-rule="evenodd" d="M67.2802 212.147H66.0679V214.572H63.644L63.644 215.784H66.0679V218.209H67.2802V215.784H69.7053V214.572H67.2802V212.147Z" fill="#CC4516"/>
<path fill-rule="evenodd" clip-rule="evenodd" d="M67.2802 233.362H66.0679V235.786H63.644L63.644 236.999H66.0679V239.423H67.2802V236.999H69.7053V235.786H67.2802V233.362Z" fill="#CC4516"/>
<path fill-rule="evenodd" clip-rule="evenodd" d="M67.2802 254.577H66.0679V257.001H63.644L63.644 258.214H66.0679V260.638H67.2802V258.214H69.7053V257.001H67.2802V254.577Z" fill="#CC4516"/>
<path fill-rule="evenodd" clip-rule="evenodd" d="M67.2802 275.792H66.0679V278.216H63.644L63.644 279.428H66.0679V281.853H67.2802V279.428H69.7053V278.216H67.2802V275.792Z" fill="#CC4516"/>
<path fill-rule="evenodd" clip-rule="evenodd" d="M67.2802 297.006H66.0679V299.431H63.644L63.644 300.643H66.0679V303.067H67.2802V300.643H69.7053V299.431H67.2802V297.006Z" fill="#CC4516"/>
<path fill-rule="evenodd" clip-rule="evenodd" d="M67.2802 318.221H66.0679V320.645H63.644L63.644 321.858L66.0679 321.858V324.282H67.2802V321.858L69.7053 321.858V320.645H67.2802V318.221Z" fill="#CC4516"/>
<path fill-rule="evenodd" clip-rule="evenodd" d="M67.2802 339.436H66.0679V341.86H63.644L63.644 343.072L66.0679 343.072V345.497H67.2802V343.072L69.7053 343.072V341.86H67.2802V339.436Z" fill="#CC4516"/>
<path fill-rule="evenodd" clip-rule="evenodd" d="M88.4948 0H87.2825V2.4245H84.8586L84.8586 3.63677L87.2825 3.63677V6.06135H88.4948V3.63677L90.9199 3.63677V2.4245H88.4948V0Z" fill="#CC4516"/>
<path fill-rule="evenodd" clip-rule="evenodd" d="M88.4948 21.2147H87.2825V23.6392H84.8586L84.8586 24.8515H87.2825V27.2761H88.4948V24.8515H90.9199V23.6392H88.4948V21.2147Z" fill="#CC4516"/>
<path fill-rule="evenodd" clip-rule="evenodd" d="M88.4948 42.4294H87.2825V44.8539H84.8586L84.8586 46.0662L87.2825 46.0662V48.4908H88.4948V46.0662L90.9199 46.0662V44.8539H88.4948V42.4294Z" fill="#CC4516"/>
<path fill-rule="evenodd" clip-rule="evenodd" d="M88.4948 63.6442H87.2825V66.0687H84.8586L84.8586 67.2809L87.2825 67.2809V69.7055H88.4948V67.2809L90.9199 67.2809V66.0687H88.4948V63.6442Z" fill="#CC4516"/>
<path fill-rule="evenodd" clip-rule="evenodd" d="M88.4948 84.8589H87.2825V87.2834H84.8586L84.8586 88.4957L87.2825 88.4957V90.9202H88.4948V88.4957L90.9199 88.4957V87.2834H88.4948V84.8589Z" fill="#CC4516"/>
<path fill-rule="evenodd" clip-rule="evenodd" d="M88.4948 106.074H87.2825V108.498H84.8586L84.8586 109.71L87.2825 109.71V112.135H88.4948V109.71L90.9199 109.71V108.498H88.4948V106.074Z" fill="#CC4516"/>
<path fill-rule="evenodd" clip-rule="evenodd" d="M88.4948 127.288H87.2825V129.713H84.8586L84.8586 130.925H87.2825V133.35H88.4948V130.925H90.9199V129.713H88.4948V127.288Z" fill="#CC4516"/>
<path fill-rule="evenodd" clip-rule="evenodd" d="M88.4948 148.503H87.2825V150.928H84.8586L84.8586 152.14L87.2825 152.14V154.565H88.4948V152.14L90.9199 152.14V150.928H88.4948V148.503Z" fill="#CC4516"/>
<path fill-rule="evenodd" clip-rule="evenodd" d="M88.4948 169.718H87.2825V172.142H84.8586L84.8586 173.355H87.2825V175.779H88.4948V173.355H90.9199V172.142H88.4948V169.718Z" fill="#CC4516"/>
<path fill-rule="evenodd" clip-rule="evenodd" d="M88.4948 190.933H87.2825V193.357H84.8586L84.8586 194.569H87.2825V196.994H88.4948V194.569H90.9199V193.357H88.4948V190.933Z" fill="#CC4516"/>
<path fill-rule="evenodd" clip-rule="evenodd" d="M88.4948 212.147H87.2825V214.572H84.8586L84.8586 215.784H87.2825V218.209H88.4948V215.784H90.9199V214.572H88.4948V212.147Z" fill="#CC4516"/>
<path fill-rule="evenodd" clip-rule="evenodd" d="M88.4948 233.362H87.2825V235.786H84.8586L84.8586 236.999H87.2825V239.423H88.4948V236.999H90.9199V235.786H88.4948V233.362Z" fill="#CC4516"/>
<path fill-rule="evenodd" clip-rule="evenodd" d="M88.4948 254.577H87.2825V257.001H84.8586L84.8586 258.214H87.2825V260.638H88.4948V258.214H90.9199V257.001H88.4948V254.577Z" fill="#CC4516"/>
<path fill-rule="evenodd" clip-rule="evenodd" d="M88.4948 275.792H87.2825V278.216H84.8586L84.8586 279.428H87.2825V281.853H88.4948V279.428H90.9199V278.216H88.4948V275.792Z" fill="#CC4516"/>
<path fill-rule="evenodd" clip-rule="evenodd" d="M88.4948 297.006H87.2825V299.431H84.8586L84.8586 300.643H87.2825V303.067H88.4948V300.643H90.9199V299.431H88.4948V297.006Z" fill="#CC4516"/>
<path fill-rule="evenodd" clip-rule="evenodd" d="M88.4948 318.221H87.2825V320.645H84.8586L84.8586 321.858L87.2825 321.858V324.282H88.4948V321.858L90.9199 321.858V320.645H88.4948V318.221Z" fill="#CC4516"/>
<path fill-rule="evenodd" clip-rule="evenodd" d="M88.4948 339.436H87.2825V341.86H84.8586L84.8586 343.072L87.2825 343.072V345.497H88.4948V343.072L90.9199 343.072V341.86H88.4948V339.436Z" fill="#CC4516"/>
<path fill-rule="evenodd" clip-rule="evenodd" d="M109.71 0H108.498V2.4245H106.074L106.074 3.63677L108.498 3.63677V6.06135H109.71V3.63677L112.135 3.63677V2.4245H109.71V0Z" fill="#CC4516"/>
<path fill-rule="evenodd" clip-rule="evenodd" d="M109.71 21.2147H108.498V23.6392H106.074L106.074 24.8515H108.498V27.2761H109.71V24.8515H112.135V23.6392H109.71V21.2147Z" fill="#CC4516"/>
<path fill-rule="evenodd" clip-rule="evenodd" d="M109.71 42.4294H108.498V44.8539H106.074L106.074 46.0662L108.498 46.0662V48.4908H109.71V46.0662L112.135 46.0662V44.8539H109.71V42.4294Z" fill="#CC4516"/>
<path fill-rule="evenodd" clip-rule="evenodd" d="M109.71 63.6442H108.498V66.0687H106.074L106.074 67.2809L108.498 67.2809V69.7055H109.71V67.2809L112.135 67.2809V66.0687H109.71V63.6442Z" fill="#CC4516"/>
<path fill-rule="evenodd" clip-rule="evenodd" d="M109.71 84.8589H108.498V87.2834H106.074L106.074 88.4957L108.498 88.4957V90.9202H109.71V88.4957L112.135 88.4957V87.2834H109.71V84.8589Z" fill="#CC4516"/>
<path fill-rule="evenodd" clip-rule="evenodd" d="M109.71 106.074H108.498V108.498H106.074L106.074 109.71L108.498 109.71V112.135H109.71V109.71L112.135 109.71V108.498H109.71V106.074Z" fill="#CC4516"/>
<path fill-rule="evenodd" clip-rule="evenodd" d="M109.71 127.288H108.498V129.713H106.074L106.074 130.925H108.498V133.35H109.71V130.925H112.135V129.713H109.71V127.288Z" fill="#CC4516"/>
<path fill-rule="evenodd" clip-rule="evenodd" d="M109.71 148.503H108.498V150.928H106.074L106.074 152.14L108.498 152.14V154.565H109.71V152.14L112.135 152.14V150.928H109.71V148.503Z" fill="#CC4516"/>
<path fill-rule="evenodd" clip-rule="evenodd" d="M109.71 169.718H108.498V172.142H106.074L106.074 173.355H108.498V175.779H109.71V173.355H112.135V172.142H109.71V169.718Z" fill="#CC4516"/>
<path fill-rule="evenodd" clip-rule="evenodd" d="M109.71 190.933H108.498V193.357H106.074L106.074 194.569H108.498V196.994H109.71V194.569H112.135V193.357H109.71V190.933Z" fill="#CC4516"/>
<path fill-rule="evenodd" clip-rule="evenodd" d="M109.71 212.147H108.498V214.572H106.074L106.074 215.784H108.498V218.209H109.71V215.784H112.135V214.572H109.71V212.147Z" fill="#CC4516"/>
<path fill-rule="evenodd" clip-rule="evenodd" d="M109.71 233.362H108.498V235.786H106.074L106.074 236.999H108.498V239.423H109.71V236.999H112.135V235.786H109.71V233.362Z" fill="#CC4516"/>
<path fill-rule="evenodd" clip-rule="evenodd" d="M109.71 254.577H108.498V257.001H106.074L106.074 258.214H108.498V260.638H109.71V258.214H112.135V257.001H109.71V254.577Z" fill="#CC4516"/>
<path fill-rule="evenodd" clip-rule="evenodd" d="M109.71 275.792H108.498V278.216H106.074L106.074 279.428H108.498V281.853H109.71V279.428H112.135V278.216H109.71V275.792Z" fill="#CC4516"/>
<path fill-rule="evenodd" clip-rule="evenodd" d="M109.71 297.006H108.498V299.431H106.074L106.074 300.643H108.498V303.067H109.71V300.643H112.135V299.431H109.71V297.006Z" fill="#CC4516"/>
<path fill-rule="evenodd" clip-rule="evenodd" d="M109.71 318.221H108.498V320.645H106.074L106.074 321.858L108.498 321.858V324.282H109.71V321.858L112.135 321.858V320.645H109.71V318.221Z" fill="#CC4516"/>
<path fill-rule="evenodd" clip-rule="evenodd" d="M109.71 339.436H108.498V341.86H106.074L106.074 343.072L108.498 343.072V345.497H109.71V343.072L112.135 343.072V341.86H109.71V339.436Z" fill="#CC4516"/>
<path fill-rule="evenodd" clip-rule="evenodd" d="M130.925 0H129.712V2.4245H127.288L127.288 3.63677L129.712 3.63677V6.06135H130.925V3.63677L133.35 3.63677V2.4245H130.925V0Z" fill="#CC4516"/>
<path fill-rule="evenodd" clip-rule="evenodd" d="M130.925 21.2147H129.712V23.6392H127.288L127.288 24.8515H129.712V27.2761H130.925V24.8515H133.35V23.6392H130.925V21.2147Z" fill="#CC4516"/>
<path fill-rule="evenodd" clip-rule="evenodd" d="M130.925 42.4294H129.712V44.8539H127.288L127.288 46.0662H129.712V48.4908H130.925V46.0662H133.35V44.8539H130.925V42.4294Z" fill="#CC4516"/>
<path fill-rule="evenodd" clip-rule="evenodd" d="M130.925 63.6442H129.712V66.0687H127.288L127.288 67.2809L129.712 67.2809V69.7055H130.925V67.2809L133.35 67.2809V66.0687H130.925V63.6442Z" fill="#CC4516"/>
<path fill-rule="evenodd" clip-rule="evenodd" d="M130.925 84.8589H129.712V87.2834H127.288L127.288 88.4957L129.712 88.4957V90.9202H130.925V88.4957L133.35 88.4957V87.2834H130.925V84.8589Z" fill="#CC4516"/>
<path fill-rule="evenodd" clip-rule="evenodd" d="M130.925 106.074H129.712V108.498H127.288L127.288 109.71H129.712V112.135H130.925V109.71H133.35V108.498H130.925V106.074Z" fill="#CC4516"/>
<path fill-rule="evenodd" clip-rule="evenodd" d="M130.925 127.288H129.712V129.713H127.288L127.288 130.925L129.712 130.925V133.35H130.925V130.925L133.35 130.925V129.713H130.925V127.288Z" fill="#CC4516"/>
<path fill-rule="evenodd" clip-rule="evenodd" d="M130.925 148.503H129.712V150.928H127.288L127.288 152.14L129.712 152.14V154.564H130.925V152.14L133.35 152.14V150.928H130.925V148.503Z" fill="#CC4516"/>
<path fill-rule="evenodd" clip-rule="evenodd" d="M130.925 169.718H129.712V172.142H127.288L127.288 173.355H129.712V175.779H130.925V173.355H133.35V172.142H130.925V169.718Z" fill="#CC4516"/>
<path fill-rule="evenodd" clip-rule="evenodd" d="M130.925 190.933H129.712V193.357H127.288L127.288 194.569L129.712 194.569V196.994H130.925V194.569L133.35 194.569V193.357H130.925V190.933Z" fill="#CC4516"/>
<path fill-rule="evenodd" clip-rule="evenodd" d="M130.925 212.147H129.712V214.572H127.288L127.288 215.784L129.712 215.784V218.209H130.925V215.784L133.35 215.784V214.572H130.925V212.147Z" fill="#CC4516"/>
<path fill-rule="evenodd" clip-rule="evenodd" d="M130.925 233.362H129.712V235.786H127.288L127.288 236.999H129.712V239.423H130.925V236.999H133.35V235.786H130.925V233.362Z" fill="#CC4516"/>
<path fill-rule="evenodd" clip-rule="evenodd" d="M130.925 254.577H129.712V257.001H127.288L127.288 258.214H129.712V260.638H130.925V258.214H133.35V257.001H130.925V254.577Z" fill="#CC4516"/>
<path fill-rule="evenodd" clip-rule="evenodd" d="M130.925 275.792H129.712V278.216H127.288L127.288 279.428H129.712V281.853H130.925V279.428H133.35V278.216H130.925V275.792Z" fill="#CC4516"/>
<path fill-rule="evenodd" clip-rule="evenodd" d="M130.925 297.006H129.712V299.431H127.288L127.288 300.643L129.712 300.643V303.068H130.925V300.643L133.35 300.643V299.431H130.925V297.006Z" fill="#CC4516"/>
<path fill-rule="evenodd" clip-rule="evenodd" d="M130.925 318.221H129.712V320.645H127.288L127.288 321.858L129.712 321.858V324.282H130.925V321.858L133.35 321.858V320.645H130.925V318.221Z" fill="#CC4516"/>
<path fill-rule="evenodd" clip-rule="evenodd" d="M130.925 339.436H129.712V341.86H127.288L127.288 343.072L129.712 343.072V345.497H130.925V343.072L133.35 343.072V341.86H130.925V339.436Z" fill="#CC4516"/>
<path fill-rule="evenodd" clip-rule="evenodd" d="M152.139 0H150.927V2.4245H148.503L148.503 3.63677L150.927 3.63677V6.06135H152.139V3.63677L154.564 3.63677V2.4245H152.139V0Z" fill="#CC4516"/>
<path fill-rule="evenodd" clip-rule="evenodd" d="M152.139 21.2147H150.927V23.6392H148.503L148.503 24.8515H150.927V27.2761H152.139V24.8515H154.564V23.6392H152.139V21.2147Z" fill="#CC4516"/>
<path fill-rule="evenodd" clip-rule="evenodd" d="M152.139 42.4294H150.927V44.8539H148.503L148.503 46.0662L150.927 46.0662V48.4908H152.139V46.0662L154.564 46.0662V44.8539H152.139V42.4294Z" fill="#CC4516"/>
<path fill-rule="evenodd" clip-rule="evenodd" d="M152.139 63.6442H150.927V66.0687H148.503L148.503 67.2809L150.927 67.2809V69.7055H152.139V67.2809L154.564 67.2809V66.0687H152.139V63.6442Z" fill="#CC4516"/>
<path fill-rule="evenodd" clip-rule="evenodd" d="M152.139 84.8589H150.927V87.2834H148.503L148.503 88.4957L150.927 88.4957V90.9202H152.139V88.4957L154.564 88.4957V87.2834H152.139V84.8589Z" fill="#CC4516"/>
<path fill-rule="evenodd" clip-rule="evenodd" d="M152.139 106.074H150.927V108.498H148.503L148.503 109.71L150.927 109.71V112.135H152.139V109.71L154.564 109.71V108.498H152.139V106.074Z" fill="#CC4516"/>
<path fill-rule="evenodd" clip-rule="evenodd" d="M152.139 127.288H150.927V129.713H148.503L148.503 130.925H150.927V133.35H152.139V130.925H154.564V129.713H152.139V127.288Z" fill="#CC4516"/>
<path fill-rule="evenodd" clip-rule="evenodd" d="M152.139 148.503H150.927V150.928H148.503L148.503 152.14L150.927 152.14V154.565H152.139V152.14L154.564 152.14V150.928H152.139V148.503Z" fill="#CC4516"/>
<path fill-rule="evenodd" clip-rule="evenodd" d="M152.139 169.718H150.927V172.142H148.503L148.503 173.355H150.927V175.779H152.139V173.355H154.564V172.142H152.139V169.718Z" fill="#CC4516"/>
<path fill-rule="evenodd" clip-rule="evenodd" d="M152.139 190.933H150.927V193.357H148.503L148.503 194.569H150.927V196.994H152.139V194.569H154.564V193.357H152.139V190.933Z" fill="#CC4516"/>
<path fill-rule="evenodd" clip-rule="evenodd" d="M152.139 212.147H150.927V214.572H148.503L148.503 215.784H150.927V218.209H152.139V215.784H154.564V214.572H152.139V212.147Z" fill="#CC4516"/>
<path fill-rule="evenodd" clip-rule="evenodd" d="M152.139 233.362H150.927V235.786H148.503L148.503 236.999H150.927V239.423H152.139V236.999H154.564V235.786H152.139V233.362Z" fill="#CC4516"/>
<path fill-rule="evenodd" clip-rule="evenodd" d="M152.139 254.577H150.927V257.001H148.503L148.503 258.214H150.927V260.638H152.139V258.214H154.564V257.001H152.139V254.577Z" fill="#CC4516"/>
<path fill-rule="evenodd" clip-rule="evenodd" d="M152.139 275.792H150.927V278.216H148.503L148.503 279.428H150.927V281.853H152.139V279.428H154.564V278.216H152.139V275.792Z" fill="#CC4516"/>
<path fill-rule="evenodd" clip-rule="evenodd" d="M152.139 297.006H150.927V299.431H148.503L148.503 300.643H150.927V303.067H152.139V300.643H154.564V299.431H152.139V297.006Z" fill="#CC4516"/>
<path fill-rule="evenodd" clip-rule="evenodd" d="M152.139 318.221H150.927V320.645H148.503L148.503 321.858L150.927 321.858V324.282H152.139V321.858L154.564 321.858V320.645H152.139V318.221Z" fill="#CC4516"/>
<path fill-rule="evenodd" clip-rule="evenodd" d="M152.139 339.436H150.927V341.86H148.503L148.503 343.072L150.927 343.072V345.497H152.139V343.072L154.564 343.072V341.86H152.139V339.436Z" fill="#CC4516"/>
<path fill-rule="evenodd" clip-rule="evenodd" d="M173.354 0H172.142V2.4245H169.718L169.718 3.63677L172.142 3.63677V6.06135H173.354V3.63677L175.779 3.63677V2.4245H173.354V0Z" fill="#CC4516"/>
<path fill-rule="evenodd" clip-rule="evenodd" d="M173.354 21.2147H172.142V23.6392H169.718L169.718 24.8515H172.142V27.2761H173.354V24.8515H175.779V23.6392H173.354V21.2147Z" fill="#CC4516"/>
<path fill-rule="evenodd" clip-rule="evenodd" d="M173.354 42.4294H172.142V44.8539H169.718L169.718 46.0662L172.142 46.0662V48.4908H173.354V46.0662L175.779 46.0662V44.8539H173.354V42.4294Z" fill="#CC4516"/>
<path fill-rule="evenodd" clip-rule="evenodd" d="M173.354 63.6442H172.142V66.0687H169.718L169.718 67.2809L172.142 67.2809V69.7055H173.354V67.2809L175.779 67.2809V66.0687H173.354V63.6442Z" fill="#CC4516"/>
<path fill-rule="evenodd" clip-rule="evenodd" d="M173.354 84.8589H172.142V87.2834H169.718L169.718 88.4957L172.142 88.4957V90.9202H173.354V88.4957L175.779 88.4957V87.2834H173.354V84.8589Z" fill="#CC4516"/>
<path fill-rule="evenodd" clip-rule="evenodd" d="M173.354 106.074H172.142V108.498H169.718L169.718 109.71L172.142 109.71V112.135H173.354V109.71L175.779 109.71V108.498H173.354V106.074Z" fill="#CC4516"/>
<path fill-rule="evenodd" clip-rule="evenodd" d="M173.354 127.288H172.142V129.713H169.718L169.718 130.925H172.142V133.35H173.354V130.925H175.779V129.713H173.354V127.288Z" fill="#CC4516"/>
<path fill-rule="evenodd" clip-rule="evenodd" d="M173.354 148.503H172.142V150.928H169.718L169.718 152.14L172.142 152.14V154.565H173.354V152.14L175.779 152.14V150.928H173.354V148.503Z" fill="#CC4516"/>
<path fill-rule="evenodd" clip-rule="evenodd" d="M173.354 169.718H172.142V172.142H169.718L169.718 173.355H172.142V175.779H173.354V173.355H175.779V172.142H173.354V169.718Z" fill="#CC4516"/>
<path fill-rule="evenodd" clip-rule="evenodd" d="M173.354 190.933H172.142V193.357H169.718L169.718 194.569H172.142V196.994H173.354V194.569H175.779V193.357H173.354V190.933Z" fill="#CC4516"/>
<path fill-rule="evenodd" clip-rule="evenodd" d="M173.354 212.147H172.142V214.572H169.718L169.718 215.784H172.142V218.209H173.354V215.784H175.779V214.572H173.354V212.147Z" fill="#CC4516"/>
<path fill-rule="evenodd" clip-rule="evenodd" d="M173.354 233.362H172.142V235.786H169.718L169.718 236.999H172.142V239.423H173.354V236.999H175.779V235.786H173.354V233.362Z" fill="#CC4516"/>
<path fill-rule="evenodd" clip-rule="evenodd" d="M173.354 254.577H172.142V257.001H169.718L169.718 258.214H172.142V260.638H173.354V258.214H175.779V257.001H173.354V254.577Z" fill="#CC4516"/>
<path fill-rule="evenodd" clip-rule="evenodd" d="M173.354 275.792H172.142V278.216H169.718L169.718 279.428H172.142V281.853H173.354V279.428H175.779V278.216H173.354V275.792Z" fill="#CC4516"/>
<path fill-rule="evenodd" clip-rule="evenodd" d="M173.354 297.006H172.142V299.431H169.718L169.718 300.643H172.142V303.067H173.354V300.643H175.779V299.431H173.354V297.006Z" fill="#CC4516"/>
<path fill-rule="evenodd" clip-rule="evenodd" d="M173.354 318.221H172.142V320.645H169.718L169.718 321.858L172.142 321.858V324.282H173.354V321.858L175.779 321.858V320.645H173.354V318.221Z" fill="#CC4516"/>
<path fill-rule="evenodd" clip-rule="evenodd" d="M173.354 339.436H172.142V341.86H169.718L169.718 343.072L172.142 343.072V345.497H173.354V343.072L175.779 343.072V341.86H173.354V339.436Z" fill="#CC4516"/>
<path fill-rule="evenodd" clip-rule="evenodd" d="M194.568 0H193.356V2.4245H190.932L190.932 3.63677L193.356 3.63677V6.06135H194.568V3.63677L196.994 3.63677V2.4245H194.568V0Z" fill="#CC4516"/>
<path fill-rule="evenodd" clip-rule="evenodd" d="M194.568 21.2147H193.356V23.6392H190.932L190.932 24.8515H193.356V27.2761H194.568V24.8515H196.994V23.6392H194.568V21.2147Z" fill="#CC4516"/>
<path fill-rule="evenodd" clip-rule="evenodd" d="M194.568 42.4294H193.356V44.8539H190.932L190.932 46.0662L193.356 46.0662V48.4908H194.568V46.0662L196.994 46.0662V44.8539H194.568V42.4294Z" fill="#CC4516"/>
<path fill-rule="evenodd" clip-rule="evenodd" d="M194.568 63.6442H193.356V66.0687H190.932L190.932 67.2809L193.356 67.2809V69.7055H194.568V67.2809L196.994 67.2809V66.0687H194.568V63.6442Z" fill="#CC4516"/>
<path fill-rule="evenodd" clip-rule="evenodd" d="M194.568 84.8589H193.356V87.2834H190.932L190.932 88.4957L193.356 88.4957V90.9202H194.568V88.4957L196.994 88.4957V87.2834H194.568V84.8589Z" fill="#CC4516"/>
<path fill-rule="evenodd" clip-rule="evenodd" d="M194.568 106.074H193.356V108.498H190.932L190.932 109.71L193.356 109.71V112.135H194.568V109.71L196.994 109.71V108.498H194.568V106.074Z" fill="#CC4516"/>
<path fill-rule="evenodd" clip-rule="evenodd" d="M194.568 127.288H193.356V129.713H190.932L190.932 130.925H193.356V133.35H194.568V130.925H196.994V129.713H194.568V127.288Z" fill="#CC4516"/>
<path fill-rule="evenodd" clip-rule="evenodd" d="M194.568 148.503H193.356V150.928H190.932L190.932 152.14L193.356 152.14V154.565H194.568V152.14L196.994 152.14V150.928H194.568V148.503Z" fill="#CC4516"/>
<path fill-rule="evenodd" clip-rule="evenodd" d="M194.568 169.718H193.356V172.142H190.932L190.932 173.355H193.356V175.779H194.568V173.355H196.994V172.142H194.568V169.718Z" fill="#CC4516"/>
<path fill-rule="evenodd" clip-rule="evenodd" d="M194.568 190.933H193.356V193.357H190.932L190.932 194.569H193.356V196.994H194.568V194.569H196.994V193.357H194.568V190.933Z" fill="#CC4516"/>
<path fill-rule="evenodd" clip-rule="evenodd" d="M194.568 212.147H193.356V214.572H190.932L190.932 215.784H193.356V218.209H194.568V215.784H196.994V214.572H194.568V212.147Z" fill="#CC4516"/>
<path fill-rule="evenodd" clip-rule="evenodd" d="M194.568 233.362H193.356V235.786H190.932L190.932 236.999H193.356V239.423H194.568V236.999H196.994V235.786H194.568V233.362Z" fill="#CC4516"/>
<path fill-rule="evenodd" clip-rule="evenodd" d="M194.568 254.577H193.356V257.001H190.932L190.932 258.214H193.356V260.638H194.568V258.214H196.994V257.001H194.568V254.577Z" fill="#CC4516"/>
<path fill-rule="evenodd" clip-rule="evenodd" d="M194.568 275.792H193.356V278.216H190.932L190.932 279.428H193.356V281.853H194.568V279.428H196.994V278.216H194.568V275.792Z" fill="#CC4516"/>
<path fill-rule="evenodd" clip-rule="evenodd" d="M194.568 297.006H193.356V299.431H190.932L190.932 300.643H193.356V303.067H194.568V300.643H196.994V299.431H194.568V297.006Z" fill="#CC4516"/>
<path fill-rule="evenodd" clip-rule="evenodd" d="M194.568 318.221H193.356V320.645H190.932L190.932 321.858L193.356 321.858V324.282H194.568V321.858L196.994 321.858V320.645H194.568V318.221Z" fill="#CC4516"/>
<path fill-rule="evenodd" clip-rule="evenodd" d="M194.568 339.436H193.356V341.86H190.932L190.932 343.072L193.356 343.072V345.497H194.568V343.072L196.994 343.072V341.86H194.568V339.436Z" fill="#CC4516"/>
<path fill-rule="evenodd" clip-rule="evenodd" d="M215.784 0H214.571V2.4245H212.147L212.147 3.63677L214.571 3.63677V6.06135H215.784V3.63677L218.209 3.63677V2.4245H215.784V0Z" fill="#CC4516"/>
<path fill-rule="evenodd" clip-rule="evenodd" d="M215.784 21.2147H214.571V23.6392H212.147L212.147 24.8515H214.571V27.2761H215.784V24.8515H218.209V23.6392H215.784V21.2147Z" fill="#CC4516"/>
<path fill-rule="evenodd" clip-rule="evenodd" d="M215.784 42.4294H214.571V44.8539H212.147L212.147 46.0662L214.571 46.0662V48.4908H215.784V46.0662L218.209 46.0662V44.8539H215.784V42.4294Z" fill="#CC4516"/>
<path fill-rule="evenodd" clip-rule="evenodd" d="M215.784 63.6442H214.571V66.0687H212.147L212.147 67.2809L214.571 67.2809V69.7055H215.784V67.2809L218.209 67.2809V66.0687H215.784V63.6442Z" fill="#CC4516"/>
<path fill-rule="evenodd" clip-rule="evenodd" d="M215.784 84.8589H214.571V87.2834H212.147L212.147 88.4957L214.571 88.4957V90.9202H215.784V88.4957L218.209 88.4957V87.2834H215.784V84.8589Z" fill="#CC4516"/>
<path fill-rule="evenodd" clip-rule="evenodd" d="M215.784 106.074H214.571V108.498H212.147L212.147 109.71L214.571 109.71V112.135H215.784V109.71L218.209 109.71V108.498H215.784V106.074Z" fill="#CC4516"/>
<path fill-rule="evenodd" clip-rule="evenodd" d="M215.784 127.288H214.571V129.713H212.147L212.147 130.925H214.571V133.35H215.784V130.925H218.209V129.713H215.784V127.288Z" fill="#CC4516"/>
<path fill-rule="evenodd" clip-rule="evenodd" d="M215.784 148.503H214.571V150.928H212.147L212.147 152.14L214.571 152.14V154.565H215.784V152.14L218.209 152.14V150.928H215.784V148.503Z" fill="#CC4516"/>
<path fill-rule="evenodd" clip-rule="evenodd" d="M215.784 169.718H214.571V172.142H212.147L212.147 173.355H214.571V175.779H215.784V173.355H218.209V172.142H215.784V169.718Z" fill="#CC4516"/>
<path fill-rule="evenodd" clip-rule="evenodd" d="M215.784 190.933H214.571V193.357H212.147L212.147 194.569H214.571V196.994H215.784V194.569H218.209V193.357H215.784V190.933Z" fill="#CC4516"/>
<path fill-rule="evenodd" clip-rule="evenodd" d="M215.784 212.147H214.571V214.572H212.147L212.147 215.784H214.571V218.209H215.784V215.784H218.209V214.572H215.784V212.147Z" fill="#CC4516"/>
<path fill-rule="evenodd" clip-rule="evenodd" d="M215.784 233.362H214.571V235.786H212.147L212.147 236.999H214.571V239.423H215.784V236.999H218.209V235.786H215.784V233.362Z" fill="#CC4516"/>
<path fill-rule="evenodd" clip-rule="evenodd" d="M215.784 254.577H214.571V257.001H212.147L212.147 258.214H214.571V260.638H215.784V258.214H218.209V257.001H215.784V254.577Z" fill="#CC4516"/>
<path fill-rule="evenodd" clip-rule="evenodd" d="M215.784 275.792H214.571V278.216H212.147L212.147 279.428H214.571V281.853H215.784V279.428H218.209V278.216H215.784V275.792Z" fill="#CC4516"/>
<path fill-rule="evenodd" clip-rule="evenodd" d="M215.784 297.006H214.571V299.431H212.147L212.147 300.643H214.571V303.067H215.784V300.643H218.209V299.431H215.784V297.006Z" fill="#CC4516"/>
<path fill-rule="evenodd" clip-rule="evenodd" d="M215.784 318.221H214.571V320.645H212.147L212.147 321.858L214.571 321.858V324.282H215.784V321.858L218.209 321.858V320.645H215.784V318.221Z" fill="#CC4516"/>
<path fill-rule="evenodd" clip-rule="evenodd" d="M215.784 339.436H214.571V341.86H212.147L212.147 343.072L214.571 343.072V345.497H215.784V343.072L218.209 343.072V341.86H215.784V339.436Z" fill="#CC4516"/>
<path fill-rule="evenodd" clip-rule="evenodd" d="M236.998 0H235.786V2.4245H233.362L233.362 3.63677L235.786 3.63677V6.06135H236.998V3.63677L239.423 3.63677V2.4245H236.998V0Z" fill="#CC4516"/>
<path fill-rule="evenodd" clip-rule="evenodd" d="M236.998 21.2147H235.786V23.6392H233.362L233.362 24.8515H235.786V27.2761H236.998V24.8515H239.423V23.6392H236.998V21.2147Z" fill="#CC4516"/>
<path fill-rule="evenodd" clip-rule="evenodd" d="M236.998 42.4294H235.786V44.8539H233.362L233.362 46.0662H235.786V48.4908H236.998V46.0662H239.423V44.8539H236.998V42.4294Z" fill="#CC4516"/>
<path fill-rule="evenodd" clip-rule="evenodd" d="M236.998 63.6442H235.786V66.0687H233.362L233.362 67.2809L235.786 67.2809V69.7055H236.998V67.2809L239.423 67.2809V66.0687H236.998V63.6442Z" fill="#CC4516"/>
<path fill-rule="evenodd" clip-rule="evenodd" d="M236.998 84.8589H235.786V87.2834H233.362L233.362 88.4957L235.786 88.4957V90.9202H236.998V88.4957L239.423 88.4957V87.2834H236.998V84.8589Z" fill="#CC4516"/>
<path fill-rule="evenodd" clip-rule="evenodd" d="M236.998 106.074H235.786V108.498H233.362L233.362 109.71H235.786V112.135H236.998V109.71H239.423V108.498H236.998V106.074Z" fill="#CC4516"/>
<path fill-rule="evenodd" clip-rule="evenodd" d="M236.998 127.288H235.786V129.713H233.362L233.362 130.925L235.786 130.925V133.35H236.998V130.925L239.423 130.925V129.713H236.998V127.288Z" fill="#CC4516"/>
<path fill-rule="evenodd" clip-rule="evenodd" d="M236.998 148.503H235.786V150.928H233.362L233.362 152.14L235.786 152.14V154.564H236.998V152.14L239.423 152.14V150.928H236.998V148.503Z" fill="#CC4516"/>
<path fill-rule="evenodd" clip-rule="evenodd" d="M236.998 169.718H235.786V172.142H233.362L233.362 173.355H235.786V175.779H236.998V173.355H239.423V172.142H236.998V169.718Z" fill="#CC4516"/>
<path fill-rule="evenodd" clip-rule="evenodd" d="M236.998 190.933H235.786V193.357H233.362L233.362 194.569L235.786 194.569V196.994H236.998V194.569L239.423 194.569V193.357H236.998V190.933Z" fill="#CC4516"/>
<path fill-rule="evenodd" clip-rule="evenodd" d="M236.998 212.147H235.786V214.572H233.362L233.362 215.784L235.786 215.784V218.209H236.998V215.784L239.423 215.784V214.572H236.998V212.147Z" fill="#CC4516"/>
<path fill-rule="evenodd" clip-rule="evenodd" d="M236.998 233.362H235.786V235.786H233.362L233.362 236.999H235.786V239.423H236.998V236.999H239.423V235.786H236.998V233.362Z" fill="#CC4516"/>
<path fill-rule="evenodd" clip-rule="evenodd" d="M236.998 254.577H235.786V257.001H233.362L233.362 258.214H235.786V260.638H236.998V258.214H239.423V257.001H236.998V254.577Z" fill="#CC4516"/>
<path fill-rule="evenodd" clip-rule="evenodd" d="M236.998 275.792H235.786V278.216H233.362L233.362 279.428H235.786V281.853H236.998V279.428H239.423V278.216H236.998V275.792Z" fill="#CC4516"/>
<path fill-rule="evenodd" clip-rule="evenodd" d="M236.998 297.006H235.786V299.431H233.362L233.362 300.643L235.786 300.643V303.068H236.998V300.643L239.423 300.643V299.431H236.998V297.006Z" fill="#CC4516"/>
<path fill-rule="evenodd" clip-rule="evenodd" d="M236.998 318.221H235.786V320.645H233.362L233.362 321.858L235.786 321.858V324.282H236.998V321.858L239.423 321.858V320.645H236.998V318.221Z" fill="#CC4516"/>
<path fill-rule="evenodd" clip-rule="evenodd" d="M236.998 339.436H235.786V341.86H233.362L233.362 343.072L235.786 343.072V345.497H236.998V343.072L239.423 343.072V341.86H236.998V339.436Z" fill="#CC4516"/>
<path fill-rule="evenodd" clip-rule="evenodd" d="M258.213 0H257V2.4245H254.577L254.577 3.63677L257 3.63677V6.06135H258.213V3.63677L260.638 3.63677V2.4245H258.213V0Z" fill="#CC4516"/>
<path fill-rule="evenodd" clip-rule="evenodd" d="M258.213 21.2147H257V23.6392H254.577L254.577 24.8515H257V27.2761H258.213V24.8515H260.638V23.6392H258.213V21.2147Z" fill="#CC4516"/>
<path fill-rule="evenodd" clip-rule="evenodd" d="M258.213 42.4294H257V44.8539H254.577L254.577 46.0662L257 46.0662V48.4908H258.213V46.0662L260.638 46.0662V44.8539H258.213V42.4294Z" fill="#CC4516"/>
<path fill-rule="evenodd" clip-rule="evenodd" d="M258.213 63.6442H257V66.0687H254.577L254.577 67.2809L257 67.2809V69.7055H258.213V67.2809L260.638 67.2809V66.0687H258.213V63.6442Z" fill="#CC4516"/>
<path fill-rule="evenodd" clip-rule="evenodd" d="M258.213 84.8589H257V87.2834H254.577L254.577 88.4957L257 88.4957V90.9202H258.213V88.4957L260.638 88.4957V87.2834H258.213V84.8589Z" fill="#CC4516"/>
<path fill-rule="evenodd" clip-rule="evenodd" d="M258.213 106.074H257V108.498H254.577L254.577 109.71L257 109.71V112.135H258.213V109.71L260.638 109.71V108.498H258.213V106.074Z" fill="#CC4516"/>
<path fill-rule="evenodd" clip-rule="evenodd" d="M258.213 127.288H257V129.713H254.577L254.577 130.925H257V133.35H258.213V130.925H260.638V129.713H258.213V127.288Z" fill="#CC4516"/>
<path fill-rule="evenodd" clip-rule="evenodd" d="M258.213 148.503H257V150.928H254.577L254.577 152.14L257 152.14V154.565H258.213V152.14L260.638 152.14V150.928H258.213V148.503Z" fill="#CC4516"/>
<path fill-rule="evenodd" clip-rule="evenodd" d="M258.213 169.718H257V172.142H254.577L254.577 173.355H257V175.779H258.213V173.355H260.638V172.142H258.213V169.718Z" fill="#CC4516"/>
<path fill-rule="evenodd" clip-rule="evenodd" d="M258.213 190.933H257V193.357H254.577L254.577 194.569H257V196.994H258.213V194.569H260.638V193.357H258.213V190.933Z" fill="#CC4516"/>
<path fill-rule="evenodd" clip-rule="evenodd" d="M258.213 212.147H257V214.572H254.577L254.577 215.784H257V218.209H258.213V215.784H260.638V214.572H258.213V212.147Z" fill="#CC4516"/>
<path fill-rule="evenodd" clip-rule="evenodd" d="M258.213 233.362H257V235.786H254.577L254.577 236.999H257V239.423H258.213V236.999H260.638V235.786H258.213V233.362Z" fill="#CC4516"/>
<path fill-rule="evenodd" clip-rule="evenodd" d="M258.213 254.577H257.001V257.001H254.577L254.577 258.214H257.001V260.638H258.213V258.214H260.638V257.001H258.213V254.577Z" fill="#CC4516"/>
<path fill-rule="evenodd" clip-rule="evenodd" d="M258.213 275.792H257V278.216H254.577L254.577 279.428H257V281.853H258.213V279.428H260.638V278.216H258.213V275.792Z" fill="#CC4516"/>
<path fill-rule="evenodd" clip-rule="evenodd" d="M258.213 297.006H257V299.431H254.577L254.577 300.643H257V303.067H258.213V300.643H260.638V299.431H258.213V297.006Z" fill="#CC4516"/>
<path fill-rule="evenodd" clip-rule="evenodd" d="M258.213 318.221H257V320.645H254.577L254.577 321.858L257 321.858V324.282H258.213V321.858L260.638 321.858V320.645H258.213V318.221Z" fill="#CC4516"/>
<path fill-rule="evenodd" clip-rule="evenodd" d="M258.213 339.436H257V341.86H254.577L254.577 343.072L257 343.072V345.497H258.213V343.072L260.638 343.072V341.86H258.213V339.436Z" fill="#CC4516"/>
<path fill-rule="evenodd" clip-rule="evenodd" d="M279.427 0H278.215V2.4245H275.791L275.791 3.63677L278.215 3.63677V6.06135H279.427V3.63677L281.853 3.63677V2.4245H279.427V0Z" fill="#CC4516"/>
<path fill-rule="evenodd" clip-rule="evenodd" d="M279.427 21.2147H278.215V23.6392H275.791L275.791 24.8515H278.215V27.2761H279.427V24.8515H281.853V23.6392H279.427V21.2147Z" fill="#CC4516"/>
<path fill-rule="evenodd" clip-rule="evenodd" d="M279.427 42.4294H278.215V44.8539H275.791L275.791 46.0662L278.215 46.0662V48.4908H279.427V46.0662L281.853 46.0662V44.8539H279.427V42.4294Z" fill="#CC4516"/>
<path fill-rule="evenodd" clip-rule="evenodd" d="M279.427 63.6442H278.215V66.0687H275.791L275.791 67.2809L278.215 67.2809V69.7055H279.427V67.2809L281.853 67.2809V66.0687H279.427V63.6442Z" fill="#CC4516"/>
<path fill-rule="evenodd" clip-rule="evenodd" d="M279.427 84.8589H278.215V87.2834H275.791L275.791 88.4957L278.215 88.4957V90.9202H279.427V88.4957L281.853 88.4957V87.2834H279.427V84.8589Z" fill="#CC4516"/>
<path fill-rule="evenodd" clip-rule="evenodd" d="M279.427 106.074H278.215V108.498H275.791L275.791 109.71L278.215 109.71V112.135H279.427V109.71L281.853 109.71V108.498H279.427V106.074Z" fill="#CC4516"/>
<path fill-rule="evenodd" clip-rule="evenodd" d="M279.427 127.288H278.215V129.713H275.791L275.791 130.925H278.215V133.35H279.427V130.925H281.853V129.713H279.427V127.288Z" fill="#CC4516"/>
<path fill-rule="evenodd" clip-rule="evenodd" d="M279.427 148.503H278.215V150.928H275.791L275.791 152.14L278.215 152.14V154.565H279.427V152.14L281.853 152.14V150.928H279.427V148.503Z" fill="#CC4516"/>
<path fill-rule="evenodd" clip-rule="evenodd" d="M279.427 169.718H278.215V172.142H275.791L275.791 173.355H278.215V175.779H279.427V173.355H281.853V172.142H279.427V169.718Z" fill="#CC4516"/>
<path fill-rule="evenodd" clip-rule="evenodd" d="M279.427 190.933H278.215V193.357H275.791L275.791 194.569H278.215V196.994H279.427V194.569H281.853V193.357H279.427V190.933Z" fill="#CC4516"/>
<path fill-rule="evenodd" clip-rule="evenodd" d="M279.427 212.147H278.215V214.572H275.791L275.791 215.784H278.215V218.209H279.427V215.784H281.853V214.572H279.427V212.147Z" fill="#CC4516"/>
<path fill-rule="evenodd" clip-rule="evenodd" d="M279.427 233.362H278.215V235.786H275.791L275.791 236.999H278.215V239.423H279.427V236.999H281.853V235.786H279.427V233.362Z" fill="#CC4516"/>
<path fill-rule="evenodd" clip-rule="evenodd" d="M279.427 254.577H278.215V257.001H275.791L275.791 258.214H278.215V260.638H279.427V258.214H281.853V257.001H279.427V254.577Z" fill="#CC4516"/>
<path fill-rule="evenodd" clip-rule="evenodd" d="M279.427 275.792H278.215V278.216H275.791L275.791 279.428H278.215V281.853H279.427V279.428H281.853V278.216H279.427V275.792Z" fill="#CC4516"/>
<path fill-rule="evenodd" clip-rule="evenodd" d="M279.427 297.006H278.215V299.431H275.791L275.791 300.643H278.215V303.067H279.427V300.643H281.853V299.431H279.427V297.006Z" fill="#CC4516"/>
<path fill-rule="evenodd" clip-rule="evenodd" d="M279.427 318.221H278.215V320.645H275.791L275.791 321.858L278.215 321.858V324.282H279.427V321.858L281.853 321.858V320.645H279.427V318.221Z" fill="#CC4516"/>
<path fill-rule="evenodd" clip-rule="evenodd" d="M279.427 339.436H278.215V341.86H275.791L275.791 343.072L278.215 343.072V345.497H279.427V343.072L281.853 343.072V341.86H279.427V339.436Z" fill="#CC4516"/>
<path fill-rule="evenodd" clip-rule="evenodd" d="M300.642 0H299.43V2.4245H297.006L297.006 3.63677L299.43 3.63677V6.06135H300.642V3.63677L303.067 3.63677V2.4245H300.642V0Z" fill="#CC4516"/>
<path fill-rule="evenodd" clip-rule="evenodd" d="M300.642 21.2147H299.43V23.6392H297.006L297.006 24.8515H299.43V27.2761H300.642V24.8515H303.067V23.6392H300.642V21.2147Z" fill="#CC4516"/>
<path fill-rule="evenodd" clip-rule="evenodd" d="M300.642 42.4294H299.43V44.8539H297.006L297.006 46.0662L299.43 46.0662V48.4908H300.642V46.0662L303.067 46.0662V44.8539H300.642V42.4294Z" fill="#CC4516"/>
<path fill-rule="evenodd" clip-rule="evenodd" d="M300.642 63.6442H299.43V66.0687H297.006L297.006 67.2809L299.43 67.2809V69.7055H300.642V67.2809L303.067 67.2809V66.0687H300.642V63.6442Z" fill="#CC4516"/>
<path fill-rule="evenodd" clip-rule="evenodd" d="M300.642 84.8589H299.43V87.2834H297.006L297.006 88.4957L299.43 88.4957V90.9202H300.642V88.4957L303.067 88.4957V87.2834H300.642V84.8589Z" fill="#CC4516"/>
<path fill-rule="evenodd" clip-rule="evenodd" d="M300.642 106.074H299.43V108.498H297.006L297.006 109.71L299.43 109.71V112.135H300.642V109.71L303.067 109.71V108.498H300.642V106.074Z" fill="#CC4516"/>
<path fill-rule="evenodd" clip-rule="evenodd" d="M300.642 127.288H299.43V129.713H297.006L297.006 130.925H299.43V133.35H300.642V130.925H303.067V129.713H300.642V127.288Z" fill="#CC4516"/>
<path fill-rule="evenodd" clip-rule="evenodd" d="M300.642 148.503H299.43V150.928H297.006L297.006 152.14L299.43 152.14V154.565H300.642V152.14L303.067 152.14V150.928H300.642V148.503Z" fill="#CC4516"/>
<path fill-rule="evenodd" clip-rule="evenodd" d="M300.642 169.718H299.43V172.142H297.006L297.006 173.355H299.43V175.779H300.642V173.355H303.067V172.142H300.642V169.718Z" fill="#CC4516"/>
<path fill-rule="evenodd" clip-rule="evenodd" d="M300.642 190.933H299.43V193.357H297.006L297.006 194.569H299.43V196.994H300.642V194.569H303.067V193.357H300.642V190.933Z" fill="#CC4516"/>
<path fill-rule="evenodd" clip-rule="evenodd" d="M300.642 212.147H299.43V214.572H297.006L297.006 215.784H299.43V218.209H300.642V215.784H303.067V214.572H300.642V212.147Z" fill="#CC4516"/>
<path fill-rule="evenodd" clip-rule="evenodd" d="M300.642 233.362H299.43V235.786H297.006L297.006 236.999H299.43V239.423H300.642V236.999H303.067V235.786H300.642V233.362Z" fill="#CC4516"/>
<path fill-rule="evenodd" clip-rule="evenodd" d="M300.642 254.577H299.43V257.001H297.006L297.006 258.214H299.43V260.638H300.642V258.214H303.067V257.001H300.642V254.577Z" fill="#CC4516"/>
<path fill-rule="evenodd" clip-rule="evenodd" d="M300.642 275.792H299.43V278.216H297.006L297.006 279.428H299.43V281.853H300.642V279.428H303.067V278.216H300.642V275.792Z" fill="#CC4516"/>
<path fill-rule="evenodd" clip-rule="evenodd" d="M300.642 297.006H299.43V299.431H297.006L297.006 300.643H299.43V303.067H300.642V300.643H303.067V299.431H300.642V297.006Z" fill="#CC4516"/>
<path fill-rule="evenodd" clip-rule="evenodd" d="M300.642 318.221H299.43V320.645H297.006L297.006 321.858L299.43 321.858V324.282H300.642V321.858L303.067 321.858V320.645H300.642V318.221Z" fill="#CC4516"/>
<path fill-rule="evenodd" clip-rule="evenodd" d="M300.642 339.436H299.43V341.86H297.006L297.006 343.072L299.43 343.072V345.497H300.642V343.072L303.067 343.072V341.86H300.642V339.436Z" fill="#CC4516"/>
<path fill-rule="evenodd" clip-rule="evenodd" d="M321.857 0H320.645V2.4245H318.221L318.221 3.63677L320.645 3.63677V6.06135H321.857V3.63677L324.282 3.63677V2.4245H321.857V0Z" fill="#CC4516"/>
<path fill-rule="evenodd" clip-rule="evenodd" d="M321.857 21.2147H320.645V23.6392H318.221L318.221 24.8515H320.645V27.2761H321.857V24.8515H324.282V23.6392H321.857V21.2147Z" fill="#CC4516"/>
<path fill-rule="evenodd" clip-rule="evenodd" d="M321.857 42.4294H320.645V44.8539H318.221L318.221 46.0662L320.645 46.0662V48.4908H321.857V46.0662L324.282 46.0662V44.8539H321.857V42.4294Z" fill="#CC4516"/>
<path fill-rule="evenodd" clip-rule="evenodd" d="M321.857 63.6442H320.645V66.0687H318.221L318.221 67.2809L320.645 67.2809V69.7055H321.857V67.2809L324.282 67.2809V66.0687H321.857V63.6442Z" fill="#CC4516"/>
<path fill-rule="evenodd" clip-rule="evenodd" d="M321.857 84.8589H320.645V87.2834H318.221L318.221 88.4957L320.645 88.4957V90.9202H321.857V88.4957L324.282 88.4957V87.2834H321.857V84.8589Z" fill="#CC4516"/>
<path fill-rule="evenodd" clip-rule="evenodd" d="M321.857 106.074H320.645V108.498H318.221L318.221 109.71L320.645 109.71V112.135H321.857V109.71L324.282 109.71V108.498H321.857V106.074Z" fill="#CC4516"/>
<path fill-rule="evenodd" clip-rule="evenodd" d="M321.857 127.288H320.645V129.713H318.221L318.221 130.925H320.645V133.35H321.857V130.925H324.282V129.713H321.857V127.288Z" fill="#CC4516"/>
<path fill-rule="evenodd" clip-rule="evenodd" d="M321.857 148.503H320.645V150.928H318.221L318.221 152.14L320.645 152.14V154.565H321.857V152.14L324.282 152.14V150.928H321.857V148.503Z" fill="#CC4516"/>
<path fill-rule="evenodd" clip-rule="evenodd" d="M321.857 169.718H320.645V172.142H318.221L318.221 173.355H320.645V175.779H321.857V173.355H324.282V172.142H321.857V169.718Z" fill="#CC4516"/>
<path fill-rule="evenodd" clip-rule="evenodd" d="M321.857 190.933H320.645V193.357H318.221L318.221 194.569H320.645V196.994H321.857V194.569H324.282V193.357H321.857V190.933Z" fill="#CC4516"/>
<path fill-rule="evenodd" clip-rule="evenodd" d="M321.857 212.147H320.645V214.572H318.221L318.221 215.784H320.645V218.209H321.857V215.784H324.282V214.572H321.857V212.147Z" fill="#CC4516"/>
<path fill-rule="evenodd" clip-rule="evenodd" d="M321.857 233.362H320.645V235.786H318.221L318.221 236.999H320.645V239.423H321.857V236.999H324.282V235.786H321.857V233.362Z" fill="#CC4516"/>
<path fill-rule="evenodd" clip-rule="evenodd" d="M321.857 254.577H320.645V257.001H318.221L318.221 258.214H320.645V260.638H321.857V258.214H324.282V257.001H321.857V254.577Z" fill="#CC4516"/>
<path fill-rule="evenodd" clip-rule="evenodd" d="M321.857 275.792H320.645V278.216H318.221L318.221 279.428H320.645V281.853H321.857V279.428H324.282V278.216H321.857V275.792Z" fill="#CC4516"/>
<path fill-rule="evenodd" clip-rule="evenodd" d="M321.857 297.006H320.645V299.431H318.221L318.221 300.643H320.645V303.067H321.857V300.643H324.282V299.431H321.857V297.006Z" fill="#CC4516"/>
<path fill-rule="evenodd" clip-rule="evenodd" d="M321.857 318.221H320.645V320.645H318.221L318.221 321.858L320.645 321.858V324.282H321.857V321.858L324.282 321.858V320.645H321.857V318.221Z" fill="#CC4516"/>
<path fill-rule="evenodd" clip-rule="evenodd" d="M321.857 339.436H320.645V341.86H318.221L318.221 343.072L320.645 343.072V345.497H321.857V343.072L324.282 343.072V341.86H321.857V339.436Z" fill="#CC4516"/>
<path fill-rule="evenodd" clip-rule="evenodd" d="M343.072 0H341.86V2.4245H339.436L339.436 3.63677H341.86V6.06135H343.072V3.63677H345.497V2.4245H343.072V0Z" fill="#CC4516"/>
<path fill-rule="evenodd" clip-rule="evenodd" d="M343.072 21.2147H341.86V23.6392H339.436L339.436 24.8515H341.86V27.2761H343.072V24.8515H345.497V23.6392H343.072V21.2147Z" fill="#CC4516"/>
<path fill-rule="evenodd" clip-rule="evenodd" d="M343.072 42.4294H341.86V44.8539H339.436L339.436 46.0662L341.86 46.0662V48.4908H343.072V46.0662L345.497 46.0662V44.8539H343.072V42.4294Z" fill="#CC4516"/>
<path fill-rule="evenodd" clip-rule="evenodd" d="M343.072 63.6442H341.86V66.0687H339.436L339.436 67.2809L341.86 67.2809V69.7055H343.072V67.2809L345.497 67.2809V66.0687H343.072V63.6442Z" fill="#CC4516"/>
<path fill-rule="evenodd" clip-rule="evenodd" d="M343.072 84.8589H341.86V87.2834H339.436L339.436 88.4957L341.86 88.4957V90.9202H343.072V88.4957L345.497 88.4957V87.2834H343.072V84.8589Z" fill="#CC4516"/>
<path fill-rule="evenodd" clip-rule="evenodd" d="M343.072 106.074H341.86V108.498H339.436L339.436 109.71L341.86 109.71V112.135H343.072V109.71L345.497 109.71V108.498H343.072V106.074Z" fill="#CC4516"/>
<path fill-rule="evenodd" clip-rule="evenodd" d="M343.072 127.288H341.86V129.713H339.436L339.436 130.925L341.86 130.925V133.35H343.072V130.925L345.497 130.925V129.713H343.072V127.288Z" fill="#CC4516"/>
<path fill-rule="evenodd" clip-rule="evenodd" d="M343.072 148.503H341.86V150.928H339.436L339.436 152.14H341.86V154.565H343.072V152.14H345.497V150.928H343.072V148.503Z" fill="#CC4516"/>
<path fill-rule="evenodd" clip-rule="evenodd" d="M343.072 169.718H341.86V172.142H339.436L339.436 173.355H341.86V175.779H343.072V173.355H345.497V172.142H343.072V169.718Z" fill="#CC4516"/>
<path fill-rule="evenodd" clip-rule="evenodd" d="M343.072 190.933H341.86V193.357H339.436L339.436 194.569L341.86 194.569V196.994H343.072V194.569L345.497 194.569V193.357H343.072V190.933Z" fill="#CC4516"/>
<path fill-rule="evenodd" clip-rule="evenodd" d="M343.072 212.147H341.86V214.572H339.436L339.436 215.784H341.86V218.209H343.072V215.784H345.497V214.572H343.072V212.147Z" fill="#CC4516"/>
<path fill-rule="evenodd" clip-rule="evenodd" d="M343.072 233.362H341.86V235.786H339.436L339.436 236.999H341.86V239.423H343.072V236.999H345.497V235.786H343.072V233.362Z" fill="#CC4516"/>
<path fill-rule="evenodd" clip-rule="evenodd" d="M343.072 254.577H341.86V257.001H339.436L339.436 258.214H341.86V260.638H343.072V258.214H345.497V257.001H343.072V254.577Z" fill="#CC4516"/>
<path fill-rule="evenodd" clip-rule="evenodd" d="M343.072 275.792H341.86V278.216H339.436L339.436 279.428H341.86V281.853H343.072V279.428H345.497V278.216H343.072V275.792Z" fill="#CC4516"/>
<path fill-rule="evenodd" clip-rule="evenodd" d="M343.072 297.006H341.86V299.431H339.436L339.436 300.643H341.86V303.067H343.072V300.643H345.497V299.431H343.072V297.006Z" fill="#CC4516"/>
<path fill-rule="evenodd" clip-rule="evenodd" d="M343.072 318.221H341.86V320.645H339.436L339.436 321.858L341.86 321.858V324.282H343.072V321.858L345.497 321.858V320.645H343.072V318.221Z" fill="#CC4516"/>
<path fill-rule="evenodd" clip-rule="evenodd" d="M343.072 339.436H341.86V341.86H339.436L339.436 343.072H341.86V345.497H343.072V343.072H345.497V341.86H343.072V339.436Z" fill="#CC4516"/>
<path fill-rule="evenodd" clip-rule="evenodd" d="M364.286 0H363.074V2.4245H360.65L360.65 3.63677L363.074 3.63677V6.06135H364.286V3.63677L366.711 3.63677V2.4245H364.286V0Z" fill="#CC4516"/>
<path fill-rule="evenodd" clip-rule="evenodd" d="M364.286 21.2147H363.074V23.6392H360.65L360.65 24.8515H363.074V27.2761H364.286V24.8515H366.711V23.6392H364.286V21.2147Z" fill="#CC4516"/>
<path fill-rule="evenodd" clip-rule="evenodd" d="M364.286 42.4294H363.074V44.8539H360.65L360.65 46.0662L363.074 46.0662V48.4908H364.286V46.0662L366.711 46.0662V44.8539H364.286V42.4294Z" fill="#CC4516"/>
<path fill-rule="evenodd" clip-rule="evenodd" d="M364.286 63.6442H363.074V66.0687H360.65L360.65 67.2809L363.074 67.2809V69.7055H364.286V67.2809L366.711 67.2809V66.0687H364.286V63.6442Z" fill="#CC4516"/>
<path fill-rule="evenodd" clip-rule="evenodd" d="M364.286 84.8589H363.074V87.2834H360.65L360.65 88.4957L363.074 88.4957V90.9202H364.286V88.4957L366.711 88.4957V87.2834H364.286V84.8589Z" fill="#CC4516"/>
<path fill-rule="evenodd" clip-rule="evenodd" d="M364.286 106.074H363.074V108.498H360.65L360.65 109.71L363.074 109.71V112.135H364.286V109.71L366.711 109.71V108.498H364.286V106.074Z" fill="#CC4516"/>
<path fill-rule="evenodd" clip-rule="evenodd" d="M364.286 127.288H363.074V129.713H360.65L360.65 130.925H363.074V133.35H364.286V130.925H366.711V129.713H364.286V127.288Z" fill="#CC4516"/>
<path fill-rule="evenodd" clip-rule="evenodd" d="M364.286 148.503H363.074V150.928H360.65L360.65 152.14L363.074 152.14V154.565H364.286V152.14L366.711 152.14V150.928H364.286V148.503Z" fill="#CC4516"/>
<path fill-rule="evenodd" clip-rule="evenodd" d="M364.286 169.718H363.074V172.142H360.65L360.65 173.355H363.074V175.779H364.286V173.355H366.711V172.142H364.286V169.718Z" fill="#CC4516"/>
<path fill-rule="evenodd" clip-rule="evenodd" d="M364.286 190.933H363.074V193.357H360.65L360.65 194.569H363.074V196.994H364.286V194.569H366.711V193.357H364.286V190.933Z" fill="#CC4516"/>
<path fill-rule="evenodd" clip-rule="evenodd" d="M364.286 212.147H363.074V214.572H360.65L360.65 215.784H363.074V218.209H364.286V215.784H366.711V214.572H364.286V212.147Z" fill="#CC4516"/>
<path fill-rule="evenodd" clip-rule="evenodd" d="M364.286 233.362H363.074V235.786H360.65L360.65 236.999H363.074V239.423H364.286V236.999H366.711V235.786H364.286V233.362Z" fill="#CC4516"/>
<path fill-rule="evenodd" clip-rule="evenodd" d="M364.286 254.577H363.074V257.001H360.65L360.65 258.214H363.074V260.638H364.286V258.214H366.711V257.001H364.286V254.577Z" fill="#CC4516"/>
<path fill-rule="evenodd" clip-rule="evenodd" d="M364.286 275.792H363.074V278.216H360.65L360.65 279.428H363.074V281.853H364.286V279.428H366.711V278.216H364.286V275.792Z" fill="#CC4516"/>
<path fill-rule="evenodd" clip-rule="evenodd" d="M364.286 297.006H363.074V299.431H360.65L360.65 300.643H363.074V303.067H364.286V300.643H366.711V299.431H364.286V297.006Z" fill="#CC4516"/>
<path fill-rule="evenodd" clip-rule="evenodd" d="M364.286 318.221H363.074V320.645H360.65L360.65 321.858L363.074 321.858V324.282H364.286V321.858L366.711 321.858V320.645H364.286V318.221Z" fill="#CC4516"/>
<path fill-rule="evenodd" clip-rule="evenodd" d="M364.286 339.436H363.074V341.86H360.65L360.65 343.072L363.074 343.072V345.497H364.286V343.072L366.711 343.072V341.86H364.286V339.436Z" fill="#CC4516"/>
<path fill-rule="evenodd" clip-rule="evenodd" d="M385.501 0H384.289V2.4245H381.865L381.865 3.63677L384.289 3.63677V6.06135H385.501V3.63677L387.926 3.63677V2.4245H385.501V0Z" fill="#CC4516"/>
<path fill-rule="evenodd" clip-rule="evenodd" d="M385.501 21.2147H384.289V23.6392H381.865L381.865 24.8515H384.289V27.2761H385.501V24.8515H387.926V23.6392H385.501V21.2147Z" fill="#CC4516"/>
<path fill-rule="evenodd" clip-rule="evenodd" d="M385.501 42.4294H384.289V44.8539H381.865L381.865 46.0662L384.289 46.0662V48.4908H385.501V46.0662L387.926 46.0662V44.8539H385.501V42.4294Z" fill="#CC4516"/>
<path fill-rule="evenodd" clip-rule="evenodd" d="M385.501 63.6442H384.289V66.0687H381.865L381.865 67.2809L384.289 67.2809V69.7055H385.501V67.2809L387.926 67.2809V66.0687H385.501V63.6442Z" fill="#CC4516"/>
<path fill-rule="evenodd" clip-rule="evenodd" d="M385.501 84.8589H384.289V87.2834H381.865L381.865 88.4957L384.289 88.4957V90.9202H385.501V88.4957L387.926 88.4957V87.2834H385.501V84.8589Z" fill="#CC4516"/>
<path fill-rule="evenodd" clip-rule="evenodd" d="M385.501 106.074H384.289V108.498H381.865L381.865 109.71L384.289 109.71V112.135H385.501V109.71L387.926 109.71V108.498H385.501V106.074Z" fill="#CC4516"/>
<path fill-rule="evenodd" clip-rule="evenodd" d="M385.501 127.288H384.289V129.713H381.865L381.865 130.925H384.289V133.35H385.501V130.925H387.926V129.713H385.501V127.288Z" fill="#CC4516"/>
<path fill-rule="evenodd" clip-rule="evenodd" d="M385.501 148.503H384.289V150.928H381.865L381.865 152.14L384.289 152.14V154.565H385.501V152.14L387.926 152.14V150.928H385.501V148.503Z" fill="#CC4516"/>
<path fill-rule="evenodd" clip-rule="evenodd" d="M385.501 169.718H384.289V172.142H381.865L381.865 173.355H384.289V175.779H385.501V173.355H387.926V172.142H385.501V169.718Z" fill="#CC4516"/>
<path fill-rule="evenodd" clip-rule="evenodd" d="M385.501 190.933H384.289V193.357H381.865L381.865 194.569H384.289V196.994H385.501V194.569H387.926V193.357H385.501V190.933Z" fill="#CC4516"/>
<path fill-rule="evenodd" clip-rule="evenodd" d="M385.501 212.147H384.289V214.572H381.865L381.865 215.784H384.289V218.209H385.501V215.784H387.926V214.572H385.501V212.147Z" fill="#CC4516"/>
<path fill-rule="evenodd" clip-rule="evenodd" d="M385.501 233.362H384.289V235.786H381.865L381.865 236.999H384.289V239.423H385.501V236.999H387.926V235.786H385.501V233.362Z" fill="#CC4516"/>
<path fill-rule="evenodd" clip-rule="evenodd" d="M385.501 254.577H384.289V257.001H381.865L381.865 258.213L384.289 258.213V260.638H385.501V258.213L387.926 258.213V257.001H385.501V254.577Z" fill="#CC4516"/>
<path fill-rule="evenodd" clip-rule="evenodd" d="M385.501 275.792H384.289V278.216H381.865L381.865 279.428H384.289V281.853H385.501V279.428H387.926V278.216H385.501V275.792Z" fill="#CC4516"/>
<path fill-rule="evenodd" clip-rule="evenodd" d="M385.501 297.006H384.289V299.431H381.865L381.865 300.643H384.289V303.067H385.501V300.643H387.926V299.431H385.501V297.006Z" fill="#CC4516"/>
<path fill-rule="evenodd" clip-rule="evenodd" d="M385.501 318.221H384.289V320.645H381.865L381.865 321.858L384.289 321.858V324.282H385.501V321.858L387.926 321.858V320.645H385.501V318.221Z" fill="#CC4516"/>
<path fill-rule="evenodd" clip-rule="evenodd" d="M385.501 339.436H384.289V341.86H381.865L381.865 343.072L384.289 343.072V345.497H385.501V343.072L387.926 343.072V341.86H385.501V339.436Z" fill="#CC4516"/>
<path fill-rule="evenodd" clip-rule="evenodd" d="M406.716 0H405.503V2.4245H403.079L403.079 3.63677L405.503 3.63677V6.06135H406.716V3.63677L409.141 3.63677V2.4245H406.716V0Z" fill="#CC4516"/>
<path fill-rule="evenodd" clip-rule="evenodd" d="M406.716 21.2147H405.503V23.6392H403.079L403.079 24.8515H405.503V27.2761H406.716V24.8515H409.141V23.6392H406.716V21.2147Z" fill="#CC4516"/>
<path fill-rule="evenodd" clip-rule="evenodd" d="M406.716 42.4294H405.503V44.8539H403.079L403.079 46.0662L405.503 46.0662V48.4908H406.716V46.0662L409.141 46.0662V44.8539H406.716V42.4294Z" fill="#CC4516"/>
<path fill-rule="evenodd" clip-rule="evenodd" d="M406.716 63.6442H405.503V66.0687H403.079L403.079 67.2809L405.503 67.2809V69.7055H406.716V67.2809L409.141 67.2809V66.0687H406.716V63.6442Z" fill="#CC4516"/>
<path fill-rule="evenodd" clip-rule="evenodd" d="M406.716 84.8589H405.503V87.2834H403.079L403.079 88.4957L405.503 88.4957V90.9202H406.716V88.4957L409.141 88.4957V87.2834H406.716V84.8589Z" fill="#CC4516"/>
<path fill-rule="evenodd" clip-rule="evenodd" d="M406.716 106.074H405.503V108.498H403.079L403.079 109.71L405.503 109.71V112.135H406.716V109.71L409.141 109.71V108.498H406.716V106.074Z" fill="#CC4516"/>
<path fill-rule="evenodd" clip-rule="evenodd" d="M406.716 127.288H405.503V129.713H403.079L403.079 130.925H405.503V133.35H406.716V130.925H409.141V129.713H406.716V127.288Z" fill="#CC4516"/>
<path fill-rule="evenodd" clip-rule="evenodd" d="M406.716 148.503H405.503V150.928H403.079L403.079 152.14L405.503 152.14V154.565H406.716V152.14L409.141 152.14V150.928H406.716V148.503Z" fill="#CC4516"/>
<path fill-rule="evenodd" clip-rule="evenodd" d="M406.716 169.718H405.503V172.142H403.079L403.079 173.355H405.503V175.779H406.716V173.355H409.141V172.142H406.716V169.718Z" fill="#CC4516"/>
<path fill-rule="evenodd" clip-rule="evenodd" d="M406.716 190.933H405.503V193.357H403.079L403.079 194.569H405.503V196.994H406.716V194.569H409.141V193.357H406.716V190.933Z" fill="#CC4516"/>
<path fill-rule="evenodd" clip-rule="evenodd" d="M406.716 212.147H405.503V214.572H403.079L403.079 215.784H405.503V218.209H406.716V215.784H409.141V214.572H406.716V212.147Z" fill="#CC4516"/>
<path fill-rule="evenodd" clip-rule="evenodd" d="M406.716 233.362H405.503V235.786H403.079L403.079 236.999H405.503V239.423H406.716V236.999H409.141V235.786H406.716V233.362Z" fill="#CC4516"/>
<path fill-rule="evenodd" clip-rule="evenodd" d="M406.716 254.577H405.503V257.001H403.079L403.079 258.214H405.503V260.638H406.716V258.214H409.141V257.001H406.716V254.577Z" fill="#CC4516"/>
<path fill-rule="evenodd" clip-rule="evenodd" d="M406.716 275.792H405.503V278.216H403.079L403.079 279.428H405.503V281.853H406.716V279.428H409.141V278.216H406.716V275.792Z" fill="#CC4516"/>
<path fill-rule="evenodd" clip-rule="evenodd" d="M406.716 297.006H405.503V299.431H403.079L403.079 300.643H405.503V303.067H406.716V300.643H409.141V299.431H406.716V297.006Z" fill="#CC4516"/>
<path fill-rule="evenodd" clip-rule="evenodd" d="M406.716 318.221H405.503V320.645H403.079L403.079 321.858L405.503 321.858V324.282H406.716V321.858L409.141 321.858V320.645H406.716V318.221Z" fill="#CC4516"/>
<path fill-rule="evenodd" clip-rule="evenodd" d="M406.716 339.436H405.503V341.86H403.079L403.079 343.072L405.503 343.072V345.497H406.716V343.072L409.141 343.072V341.86H406.716V339.436Z" fill="#CC4516"/>
<path fill-rule="evenodd" clip-rule="evenodd" d="M427.931 0H426.719V2.4245H424.295L424.295 3.63677L426.719 3.63677V6.06135H427.931V3.63677L430.356 3.63677V2.4245H427.931V0Z" fill="#CC4516"/>
<path fill-rule="evenodd" clip-rule="evenodd" d="M427.931 21.2147H426.719V23.6392H424.295L424.295 24.8515H426.719V27.2761H427.931V24.8515H430.356V23.6392H427.931V21.2147Z" fill="#CC4516"/>
<path fill-rule="evenodd" clip-rule="evenodd" d="M427.931 42.4294H426.719V44.8539H424.295L424.295 46.0662L426.719 46.0662V48.4908H427.931V46.0662L430.356 46.0662V44.8539H427.931V42.4294Z" fill="#CC4516"/>
<path fill-rule="evenodd" clip-rule="evenodd" d="M427.931 63.6442H426.719V66.0687H424.295L424.295 67.2809L426.719 67.2809V69.7055H427.931V67.2809L430.356 67.2809V66.0687H427.931V63.6442Z" fill="#CC4516"/>
<path fill-rule="evenodd" clip-rule="evenodd" d="M427.931 84.8589H426.719V87.2834H424.295L424.295 88.4957L426.719 88.4957V90.9202H427.931V88.4957L430.356 88.4957V87.2834H427.931V84.8589Z" fill="#CC4516"/>
<path fill-rule="evenodd" clip-rule="evenodd" d="M427.931 106.074H426.719V108.498H424.295L424.295 109.71L426.719 109.71V112.135H427.931V109.71L430.356 109.71V108.498H427.931V106.074Z" fill="#CC4516"/>
<path fill-rule="evenodd" clip-rule="evenodd" d="M427.931 127.288H426.719V129.713H424.295L424.295 130.925H426.719V133.35H427.931V130.925H430.356V129.713H427.931V127.288Z" fill="#CC4516"/>
<path fill-rule="evenodd" clip-rule="evenodd" d="M427.931 148.503H426.719V150.928H424.295L424.295 152.14L426.719 152.14V154.565H427.931V152.14L430.356 152.14V150.928H427.931V148.503Z" fill="#CC4516"/>
<path fill-rule="evenodd" clip-rule="evenodd" d="M427.931 169.718H426.719V172.142H424.295L424.295 173.355H426.719V175.779H427.931V173.355H430.356V172.142H427.931V169.718Z" fill="#CC4516"/>
<path fill-rule="evenodd" clip-rule="evenodd" d="M427.931 190.933H426.719V193.357H424.295L424.295 194.569H426.719V196.994H427.931V194.569H430.356V193.357H427.931V190.933Z" fill="#CC4516"/>
<path fill-rule="evenodd" clip-rule="evenodd" d="M427.931 212.147H426.719V214.572H424.295L424.295 215.784H426.719V218.209H427.931V215.784H430.356V214.572H427.931V212.147Z" fill="#CC4516"/>
<path fill-rule="evenodd" clip-rule="evenodd" d="M427.931 233.362H426.719V235.786H424.295L424.295 236.999H426.719V239.423H427.931V236.999H430.356V235.786H427.931V233.362Z" fill="#CC4516"/>
<path fill-rule="evenodd" clip-rule="evenodd" d="M427.931 254.577H426.719V257.001H424.295L424.295 258.214H426.719V260.638H427.931V258.214H430.356V257.001H427.931V254.577Z" fill="#CC4516"/>
<path fill-rule="evenodd" clip-rule="evenodd" d="M427.931 275.792H426.719V278.216H424.295L424.295 279.428H426.719V281.853H427.931V279.428H430.356V278.216H427.931V275.792Z" fill="#CC4516"/>
<path fill-rule="evenodd" clip-rule="evenodd" d="M427.931 297.006H426.719V299.431H424.295L424.295 300.643H426.719V303.067H427.931V300.643H430.356V299.431H427.931V297.006Z" fill="#CC4516"/>
<path fill-rule="evenodd" clip-rule="evenodd" d="M427.931 318.221H426.719V320.645H424.295L424.295 321.858L426.719 321.858V324.282H427.931V321.858L430.356 321.858V320.645H427.931V318.221Z" fill="#CC4516"/>
<path fill-rule="evenodd" clip-rule="evenodd" d="M427.931 339.436H426.719V341.86H424.295L424.295 343.072L426.719 343.072V345.497H427.931V343.072L430.356 343.072V341.86H427.931V339.436Z" fill="#CC4516"/>
</g>
</svg>
