<svg width="131" height="16" viewBox="0 0 131 16" fill="none" xmlns="http://www.w3.org/2000/svg">
<path d="M12.4968 9.6588L14.751 11.1925C13.7863 12.5863 12.797 13.5885 11.7733 14.1852C10.7495 14.7865 9.44028 15.0849 7.83573 15.0849C5.56179 15.0849 3.68653 14.3856 2.20995 12.9918C0.73829 11.598 0 9.78 0 7.54244C0 5.31887 0.753056 3.50551 2.26409 2.10237C3.77513 0.699238 5.66515 0 7.94401 0C9.50426 0 10.8824 0.349619 12.0784 1.04886C13.2745 1.74809 14.1358 2.66177 14.6625 3.79453L12.3196 5.38879C11.3697 3.4822 9.88325 2.52658 7.85541 2.52658C6.46743 2.52658 5.30093 2.98808 4.35591 3.90641C3.40598 4.82474 2.93347 6.03675 2.93347 7.54244C2.93347 9.00618 3.40598 10.2089 4.35591 11.1505C5.30585 12.0921 6.47235 12.5583 7.85541 12.5583C9.85372 12.563 11.4041 11.5934 12.4968 9.6588Z" fill="#751300"/>
<path d="M43.3822 1.03513V14.5537H40.626V13.104C40.3208 13.6167 39.8729 14.0316 39.2823 14.3579C38.6916 14.6842 38.0026 14.8427 37.2151 14.8427C35.6843 14.8427 34.4096 14.3533 33.3956 13.3697C32.3817 12.3907 31.8748 11.0669 31.8748 9.412C31.8748 7.78044 32.4112 6.47054 33.4842 5.47296C34.5572 4.48004 35.8025 3.98125 37.2151 3.98125C38.8196 3.98125 39.9566 4.49869 40.6309 5.53356V0.046875L43.3822 1.03513ZM35.5514 11.5563C36.1372 12.1157 36.8656 12.3954 37.7417 12.3954C38.6178 12.3954 39.3463 12.1157 39.932 11.5563C40.5177 10.9969 40.8081 10.2837 40.8081 9.412C40.8081 8.54028 40.5177 7.82706 39.932 7.26767C39.3463 6.70828 38.6178 6.42858 37.7417 6.42858C36.8656 6.42858 36.1372 6.70828 35.5514 7.26767C34.9657 7.82706 34.6753 8.54028 34.6753 9.412C34.6753 10.2837 34.9657 10.9969 35.5514 11.5563Z" fill="#751300"/>
<path d="M55.1355 10.0364H46.778C46.8666 10.8242 47.1767 11.4489 47.7181 11.9104C48.2595 12.3719 48.9339 12.6049 49.7509 12.6049C51.0946 12.6049 52.0937 11.9756 52.7484 10.717L54.8057 11.8358C53.7869 13.8403 52.0839 14.8425 49.7066 14.8425C48.1611 14.8425 46.842 14.3344 45.7543 13.3182C44.6665 12.3019 44.1251 11.0014 44.1251 9.41176C44.1251 7.80818 44.6764 6.50293 45.7789 5.49603C46.8814 4.48913 48.2349 3.98102 49.8395 3.98102C51.385 3.98102 52.6548 4.46116 53.6491 5.42145C54.6433 6.38173 55.1355 7.61705 55.1355 9.12275V10.0364V10.0364ZM49.7558 5.97151C49.0421 5.97151 48.4171 6.17662 47.8855 6.58218C47.3539 6.98774 46.9848 7.50517 46.778 8.12517H52.6007C52.4678 7.44924 52.1577 6.91782 51.6606 6.54023C51.1635 6.16264 50.5286 5.97151 49.7558 5.97151Z" fill="#751300"/>
<path d="M67.3467 1.03513V14.5537H64.5904V13.104C64.2852 13.6167 63.8373 14.0316 63.2467 14.3579C62.6561 14.6842 61.967 14.8427 61.1795 14.8427C59.6488 14.8427 58.374 14.3533 57.3601 13.3697C56.3461 12.3907 55.8392 11.0669 55.8392 9.412C55.8392 7.78044 56.3757 6.47054 57.4486 5.47296C58.5216 4.48004 59.7669 3.98125 61.1795 3.98125C62.784 3.98125 63.921 4.49869 64.5953 5.53356V0.046875L67.3467 1.03513ZM59.5159 11.5563C60.1016 12.1157 60.83 12.3954 61.7061 12.3954C62.5822 12.3954 63.3107 12.1157 63.8964 11.5563C64.4821 10.9969 64.7725 10.2837 64.7725 9.412C64.7725 8.54028 64.4821 7.82706 63.8964 7.26767C63.3107 6.70828 62.5822 6.42858 61.7061 6.42858C60.83 6.42858 60.1016 6.70828 59.5159 7.26767C58.9301 7.82706 58.6398 8.54028 58.6398 9.412C58.6398 10.2837 58.9301 10.9969 59.5159 11.5563Z" fill="#751300"/>
<path d="M68.6606 14.5537V0.046875H79.228V2.49421H71.5449V5.8319H78.6128V8.27923H71.5449V12.1157H79.292V14.563H68.6606V14.5537Z" fill="#751300"/>
<path d="M90.7015 4.27472L86.3013 14.5535H83.7173L79.3171 4.27472H82.2505L85.0068 11.2391L87.7631 4.27472H90.7015V4.27472Z" fill="#751300"/>
<path d="M101.402 10.0364H93.0442C93.1328 10.8242 93.4428 11.4489 93.9843 11.9104C94.5257 12.3719 95.2 12.6049 96.017 12.6049C97.3607 12.6049 98.3599 11.9756 99.0145 10.717L101.072 11.8358C100.053 13.8403 98.35 14.8425 95.9727 14.8425C94.4272 14.8425 93.1081 14.3344 92.0204 13.3182C90.9326 12.3019 90.3912 11.0014 90.3912 9.41176C90.3912 7.80818 90.9425 6.50293 92.045 5.49603C93.1475 4.48913 94.5011 3.98102 96.1056 3.98102C97.6511 3.98102 98.921 4.46116 99.9152 5.42145C100.909 6.38173 101.402 7.61705 101.402 9.12274V10.0364V10.0364ZM96.017 5.97151C95.3033 5.97151 94.6782 6.17662 94.1467 6.58218C93.6151 6.98774 93.246 7.50517 93.0392 8.12516H98.8619C98.729 7.44923 98.4189 6.91782 97.9218 6.54023C97.4247 6.16264 96.7898 5.97151 96.017 5.97151Z" fill="#751300"/>
<path d="M112.958 7.54717V14.5535H110.202V8.62399C110.202 7.16025 109.464 6.42839 107.992 6.42839C107.264 6.42839 106.658 6.69876 106.186 7.23484C105.713 7.77558 105.477 8.47016 105.477 9.32789V14.5489H102.721V4.27474H105.477V5.93426C106.368 4.63368 107.593 3.98572 109.154 3.98572C110.305 3.98572 111.231 4.31203 111.92 4.95999C112.609 5.60795 112.958 6.47034 112.958 7.54717Z" fill="#751300"/>
<path d="M113.461 6.38636V4.27H115.144V1.4917L117.9 0.498779V4.27H120.263V6.38636H117.905V11.0712C117.905 12.0409 118.363 12.521 119.283 12.521C119.603 12.521 119.908 12.479 120.204 12.3951L120.464 14.5488C119.908 14.7399 119.298 14.8378 118.629 14.8378C116.31 14.8378 115.149 13.747 115.149 11.5654V6.38636H113.461Z" fill="#751300"/>
<path d="M124.008 6.80131C124.008 7.43529 124.86 7.92009 126.568 8.25107C127.838 8.49813 128.758 8.87572 129.334 9.37917C129.91 9.88262 130.2 10.5632 130.2 11.4209C130.2 12.4139 129.811 13.2343 129.039 13.8776C128.266 14.5209 127.222 14.8425 125.908 14.8425C124.653 14.8425 123.615 14.5535 122.788 13.9708C121.961 13.3928 121.346 12.6516 120.937 11.7519L123.147 10.4234C123.393 11.0993 123.757 11.64 124.23 12.0409C124.702 12.4418 125.278 12.6423 125.948 12.6423C126.4 12.6423 126.799 12.5397 127.139 12.3439C127.483 12.1435 127.651 11.8638 127.651 11.5049C127.651 11.1739 127.469 10.9082 127.104 10.7077C126.74 10.5073 126.149 10.3301 125.332 10.181C122.807 9.71014 121.547 8.63798 121.547 6.96913C121.547 6.04148 121.941 5.31427 122.729 4.78285C123.516 4.25143 124.471 3.98572 125.593 3.98572C126.745 3.98572 127.67 4.19083 128.359 4.60571C129.053 5.02059 129.624 5.67787 130.077 6.5729L128.084 7.69168C127.587 6.48899 126.77 5.88764 125.633 5.88764C124.555 5.88764 124.008 6.19531 124.008 6.80131Z" fill="#751300"/>
<path d="M25.8209 0.59668C28.3163 1.34719 30.3146 3.16055 31.2055 5.48202C31.2448 5.58457 31.2842 5.69179 31.3187 5.79901V5.48202V0.59668H25.8209Z" fill="#F79C1D"/>
<path d="M25.8599 15.8121H31.3183V11.048V10.6331C31.274 10.7729 31.2248 10.9081 31.1657 11.048C30.2601 13.3042 28.3061 15.0756 25.8599 15.8121Z" fill="#F79C1D"/>
<path d="M15.4108 11.048C15.3418 10.8848 15.2828 10.7216 15.2286 10.5492V11.048V15.8121H20.7215C18.2753 15.0756 16.3164 13.3042 15.4108 11.048Z" fill="#F79C1D"/>
<path d="M20.7675 0.59668H15.2352V5.48202V5.87359C15.2746 5.74306 15.3238 5.6172 15.373 5.48202C16.2639 3.16055 18.2622 1.34719 20.7675 0.59668Z" fill="#F79C1D"/>
<path d="M29.3746 8.8197C29.3352 9.19729 29.2466 9.57022 29.1334 9.92916H30.3292H31.3135V8.8197H30.5261H29.3746Z" fill="#CC4517"/>
<path d="M30.3581 6.59619H29.1672C29.2755 6.95047 29.3493 7.3234 29.3788 7.70565H30.5353H31.3128V6.59619H30.3581Z" fill="#CC4517"/>
<path d="M28.6903 5.48204H29.97C29.0791 3.51951 27.2482 2.03247 25.0186 1.52435V2.65246C26.5985 3.09065 27.9225 4.12552 28.6903 5.48204Z" fill="#CC4517"/>
<path d="M25.0186 13.7703V14.9031C27.2088 14.3996 29.0102 12.9545 29.9257 11.0433H28.6362C27.8536 12.3532 26.5591 13.3461 25.0186 13.7703Z" fill="#CC4517"/>
<path d="M27.2332 11.048C27.5039 10.7077 27.7303 10.3347 27.8977 9.93383C28.0453 9.57955 28.1438 9.20662 28.1979 8.82437C28.2323 8.62393 28.2422 8.41882 28.2422 8.21371C28.2422 8.04589 28.2274 7.87341 28.2077 7.71026C28.1684 7.32801 28.0748 6.95508 27.937 6.6008C27.7845 6.19524 27.5728 5.82698 27.3119 5.48668C26.7459 4.73617 25.9486 4.14881 25.0134 3.8225C24.6492 3.69197 24.2603 3.6034 23.8617 3.56611V2.44267V1.3472V0.59668H22.7149V1.35186V2.44267V3.55678C22.3014 3.59874 21.9077 3.69663 21.5385 3.82716C20.6181 4.15347 19.8355 4.73617 19.2695 5.47736C19.0086 5.81765 18.797 6.19058 18.6444 6.59148H17.4189C17.5321 6.1999 17.6994 5.82698 17.8914 5.47736C18.6543 4.13016 19.9635 3.09995 21.5385 2.65244V1.52433C19.3236 2.04643 17.5074 3.52882 16.6117 5.47736C16.4542 5.83164 16.3213 6.20923 16.2277 6.59148C16.1342 6.95042 16.0702 7.32334 16.0407 7.70093H17.1974H18.3688C18.3491 7.86409 18.3442 8.03657 18.3442 8.20438C18.3442 8.41416 18.3589 8.6146 18.3885 8.81505H17.2023H16.0506C16.085 9.19264 16.149 9.56557 16.2524 9.92451C16.3508 10.3068 16.4935 10.6797 16.6658 11.0386C17.5714 12.9359 19.363 14.381 21.5385 14.8891V13.7563C20.0078 13.3275 18.7232 12.3392 17.9603 11.0386C17.7486 10.6843 17.5813 10.3161 17.4484 9.92451H18.6936C18.861 10.3301 19.0775 10.6983 19.3532 11.0386C19.9143 11.7332 20.6624 12.2739 21.5434 12.5909C21.9175 12.7215 22.3113 12.8194 22.7198 12.8613V13.9708V15.0662V15.8028H23.8715V15.0709V13.9754V12.8613C24.2702 12.824 24.659 12.7354 25.0232 12.6049C25.8994 12.2973 26.6721 11.7518 27.2332 11.048ZM22.9856 10.372C22.646 10.6471 22.1341 10.6051 21.8437 10.2835C21.8388 10.2741 21.8289 10.2648 21.824 10.2555L20.3917 8.38153C20.308 8.27897 20.2539 8.16709 20.2391 8.05988C20.2342 8.05055 20.2342 8.04123 20.2293 8.03191C20.2244 8.01792 20.2194 7.99927 20.2194 7.98529C20.2194 7.97597 20.2145 7.96664 20.2145 7.96198C20.2145 7.95266 20.2096 7.94334 20.2096 7.93401C20.2096 7.92469 20.2096 7.91537 20.2096 7.90604C20.2096 7.89672 20.2096 7.8874 20.2096 7.87341C20.2096 7.86409 20.2096 7.85477 20.2096 7.8501C20.2096 7.83612 20.2096 7.81747 20.2145 7.80349C20.2145 7.79417 20.2145 7.7895 20.2194 7.78018C20.2194 7.77086 20.2244 7.75687 20.2244 7.74755C20.2244 7.73823 20.2293 7.73357 20.2293 7.72424C20.2342 7.71026 20.2342 7.70093 20.2391 7.68695C20.2391 7.68229 20.244 7.67763 20.244 7.67296C20.249 7.65432 20.2588 7.64033 20.2637 7.62169C20.2687 7.61703 20.2687 7.61236 20.2736 7.60304C20.2785 7.59372 20.2834 7.57973 20.2933 7.57041C20.2982 7.56575 20.2982 7.56109 20.3031 7.55176C20.313 7.53778 20.3228 7.52379 20.3326 7.50981C20.3326 7.50981 20.3326 7.50515 20.3376 7.50515C20.3474 7.49116 20.3622 7.47718 20.372 7.45853C20.3769 7.45387 20.3819 7.44921 20.3819 7.44455C20.3917 7.43522 20.4015 7.4259 20.4114 7.41192C20.4163 7.40725 20.4212 7.40259 20.4262 7.39793C20.4409 7.38395 20.4557 7.36996 20.4754 7.36064C20.7362 7.16951 21.0955 7.18816 21.3318 7.38395L22.4835 8.34423C22.5672 8.27431 25.4908 5.94818 25.4908 5.94818C25.7222 5.7757 26.0618 5.81299 26.2439 6.03209C26.2587 6.04607 26.2685 6.06472 26.2783 6.0787C26.2833 6.08336 26.2833 6.08803 26.2882 6.09269C26.298 6.10667 26.303 6.12066 26.3079 6.13464C26.3079 6.1393 26.3128 6.14396 26.3128 6.14396C26.3226 6.16261 26.3276 6.18126 26.3325 6.19524C26.3325 6.1999 26.3325 6.1999 26.3374 6.20456C26.3423 6.21855 26.3472 6.2372 26.3472 6.25118C26.3472 6.25584 26.3472 6.2605 26.3472 6.26517C26.3522 6.28381 26.3522 6.30246 26.3522 6.3211C26.3522 6.33975 26.3522 6.3584 26.3522 6.37704C26.3522 6.3817 26.3522 6.3817 26.3522 6.38637C26.3522 6.40035 26.3472 6.41434 26.3472 6.42832C26.3768 6.55885 26.3276 6.68937 26.2094 6.80591L26.1996 6.81523L22.9856 10.372Z" fill="#CC4517"/>
</svg>
