<svg width="249" height="32" viewBox="0 0 249 32" fill="none" xmlns="http://www.w3.org/2000/svg">
<path d="M23.8994 19.2581L28.2105 22.1912C26.3655 24.8567 24.4736 26.7735 22.5157 27.9146C20.5578 29.0646 18.054 29.6352 14.9853 29.6352C10.6366 29.6352 7.05026 28.2979 4.22639 25.6323C1.41193 22.9668 0 19.4899 0 15.2107C0 10.9583 1.44017 7.49033 4.32994 4.80692C7.2197 2.12351 10.8343 0.786255 15.1924 0.786255C18.1763 0.786255 20.8119 1.45488 23.0993 2.79213C25.3866 4.12938 27.0339 5.87672 28.041 8.04306L23.5605 11.092C21.7438 7.44576 18.9011 5.61818 15.023 5.61818C12.3686 5.61818 10.1377 6.50077 8.33042 8.25702C6.51373 10.0133 5.61009 12.3312 5.61009 15.2107C5.61009 18.01 6.51373 20.3101 8.33042 22.1109C10.1471 23.9117 12.378 24.8032 15.023 24.8032C18.8446 24.8122 21.8097 22.9578 23.8994 19.2581Z" fill="white"/>
<path d="M82.9658 2.76608V28.6196H77.6946V25.847C77.111 26.8277 76.2544 27.6211 75.1249 28.2451C73.9954 28.8692 72.6776 29.1723 71.1715 29.1723C68.2441 29.1723 65.8061 28.2362 63.8671 26.3552C61.928 24.483 60.9585 21.9512 60.9585 18.7863C60.9585 15.6661 61.9845 13.161 64.0365 11.2532C66.0885 9.35426 68.47 8.40035 71.1715 8.40035C74.2401 8.40035 76.4145 9.38992 77.704 11.369V0.876099L82.9658 2.76608ZM67.9899 22.8872C69.1101 23.957 70.5032 24.4919 72.1787 24.4919C73.8542 24.4919 75.2473 23.957 76.3674 22.8872C77.4875 21.8174 78.0429 20.4534 78.0429 18.7863C78.0429 17.1192 77.4875 15.7552 76.3674 14.6854C75.2473 13.6156 73.8542 13.0807 72.1787 13.0807C70.5032 13.0807 69.1101 13.6156 67.9899 14.6854C66.8698 15.7552 66.3144 17.1192 66.3144 18.7863C66.3144 20.4534 66.8698 21.8174 67.9899 22.8872Z" fill="white"/>
<path d="M105.443 19.9801H89.4603C89.6297 21.4867 90.2227 22.6814 91.2581 23.5639C92.2936 24.4465 93.5831 24.8923 95.1457 24.8923C97.7154 24.8923 99.6262 23.6888 100.878 21.2817L104.813 23.4213C102.864 27.2547 99.6074 29.1715 95.061 29.1715C92.1053 29.1715 89.5826 28.1997 87.5024 26.2563C85.4221 24.3128 84.3867 21.8255 84.3867 18.7855C84.3867 15.7187 85.441 13.2225 87.5495 11.2969C89.6579 9.37127 92.2465 8.39954 95.3151 8.39954C98.2708 8.39954 100.699 9.31778 102.601 11.1543C104.502 12.9908 105.443 15.3532 105.443 18.2328V19.9801V19.9801ZM95.1551 12.2062C93.7902 12.2062 92.5948 12.5985 91.5782 13.3741C90.5616 14.1497 89.8556 15.1393 89.4603 16.325H100.596C100.342 15.0323 99.7486 14.016 98.7979 13.2939C97.8472 12.5718 96.6329 12.2062 95.1551 12.2062Z" fill="white"/>
<path d="M128.796 2.76608V28.6196H123.525V25.847C122.942 26.8277 122.085 27.6211 120.955 28.2451C119.826 28.8692 118.508 29.1723 117.002 29.1723C114.075 29.1723 111.637 28.2362 109.698 26.3552C107.759 24.483 106.789 21.9512 106.789 18.7863C106.789 15.6661 107.815 13.161 109.867 11.2532C111.919 9.35426 114.301 8.40035 117.002 8.40035C120.071 8.40035 122.245 9.38992 123.535 11.369V0.876099L128.796 2.76608ZM113.821 22.8872C114.941 23.957 116.334 24.4919 118.009 24.4919C119.685 24.4919 121.078 23.957 122.198 22.8872C123.318 21.8174 123.873 20.4534 123.873 18.7863C123.873 17.1192 123.318 15.7552 122.198 14.6854C121.078 13.6156 119.685 13.0807 118.009 13.0807C116.334 13.0807 114.941 13.6156 113.821 14.6854C112.7 15.7552 112.145 17.1192 112.145 18.7863C112.145 20.4534 112.7 21.8174 113.821 22.8872Z" fill="white"/>
<path d="M131.31 28.6196V0.876099H151.519V5.55647H136.826V11.9396H150.342V16.62H136.826V23.957H151.641V28.6374H131.31V28.6196Z" fill="white"/>
<path d="M173.461 8.96204L165.046 28.6196H160.104L151.689 8.96204H157.299L162.57 22.281L167.841 8.96204H173.461V8.96204Z" fill="white"/>
<path d="M193.924 19.9801H177.941C178.111 21.4867 178.704 22.6814 179.739 23.5639C180.775 24.4465 182.064 24.8923 183.627 24.8923C186.196 24.8923 188.107 23.6887 189.359 21.2817L193.294 23.4213C191.345 27.2547 188.088 29.1715 183.542 29.1715C180.586 29.1715 178.064 28.1997 175.983 26.2563C173.903 24.3128 172.868 21.8255 172.868 18.7855C172.868 15.7187 173.922 13.2225 176.03 11.2969C178.139 9.37127 180.727 8.39954 183.796 8.39954C186.752 8.39954 189.18 9.31778 191.082 11.1543C192.983 12.9908 193.924 15.3532 193.924 18.2328V19.9801V19.9801ZM183.627 12.2062C182.262 12.2062 181.066 12.5985 180.05 13.3741C179.033 14.1497 178.327 15.1393 177.932 16.325H189.067C188.813 15.0323 188.22 14.016 187.269 13.2939C186.319 12.5718 185.104 12.2062 183.627 12.2062Z" fill="white"/>
<path d="M216.026 15.2199V28.6191H210.754V17.2792C210.754 14.4799 209.342 13.0803 206.528 13.0803C205.135 13.0803 203.977 13.5973 203.073 14.6226C202.17 15.6567 201.718 16.985 201.718 18.6254V28.6102H196.447V8.96154H201.718V12.1353C203.422 9.648 205.766 8.40881 208.749 8.40881C210.952 8.40881 212.722 9.03286 214.04 10.272C215.357 11.5112 216.026 13.1605 216.026 15.2199Z" fill="white"/>
<path d="M216.986 13.0005V8.95307H220.206V3.63974L225.477 1.74084V8.95307H229.995V13.0005H225.486V21.96C225.486 23.8144 226.362 24.7326 228.122 24.7326C228.734 24.7326 229.317 24.6524 229.882 24.4919L230.381 28.6106C229.317 28.9761 228.15 29.1634 226.87 29.1634C222.436 29.1634 220.215 27.0772 220.215 22.905V13.0005H216.986Z" fill="white"/>
<path d="M237.159 13.7935C237.159 15.0059 238.787 15.9331 242.054 16.566C244.482 17.0385 246.242 17.7606 247.344 18.7235C248.445 19.6863 249 20.9879 249 22.6282C249 24.5271 248.257 26.0962 246.779 27.3264C245.301 28.5567 243.305 29.1718 240.792 29.1718C238.392 29.1718 236.406 28.6191 234.824 27.5047C233.243 26.3993 232.066 24.9818 231.285 23.2612L235.512 20.7204C235.982 22.0131 236.679 23.0472 237.582 23.8139C238.486 24.5806 239.587 24.964 240.867 24.964C241.733 24.964 242.496 24.7678 243.145 24.3934C243.804 24.0101 244.124 23.4752 244.124 22.7887C244.124 22.1557 243.776 21.6476 243.08 21.2642C242.383 20.8809 241.253 20.5421 239.691 20.2568C234.862 19.3564 232.452 17.306 232.452 14.1144C232.452 12.3403 233.205 10.9496 234.711 9.93328C236.218 8.91697 238.044 8.40881 240.19 8.40881C242.392 8.40881 244.162 8.80107 245.48 9.59451C246.807 10.3879 247.899 11.645 248.765 13.3566L244.953 15.4962C244.002 13.1962 242.439 12.0461 240.265 12.0461C238.204 12.0461 237.159 12.6345 237.159 13.7935Z" fill="white"/>
<path d="M49.3809 1.92761C54.1532 3.36293 57.9749 6.83086 59.6786 11.2705C59.7539 11.4667 59.8292 11.6717 59.8951 11.8767V11.2705V1.92761H49.3809Z" fill="#F79C1D"/>
<path d="M49.4556 31.0264H59.8945V21.9153V21.1218C59.8097 21.3893 59.7156 21.6478 59.6027 21.9153C57.8707 26.2301 54.1338 29.6178 49.4556 31.0264Z" fill="#F79C1D"/>
<path d="M29.4723 21.9151C29.3405 21.6031 29.2276 21.291 29.124 20.9612V21.9151V31.0262H39.6289C34.9506 29.6176 31.2043 26.2299 29.4723 21.9151Z" fill="#F79C1D"/>
<path d="M39.7168 1.92749H29.1367V11.2704V12.0193C29.212 11.7696 29.3061 11.5289 29.4003 11.2704C31.104 6.83073 34.9257 3.3628 39.7168 1.92749Z" fill="#F79C1D"/>
<path d="M56.1775 17.6542C56.1022 18.3763 55.9328 19.0895 55.7163 19.7759H58.0032H59.8855V17.6542H58.3797H56.1775Z" fill="#CC4517"/>
<path d="M58.0583 13.4012H55.7808C55.9878 14.0788 56.129 14.792 56.1854 15.523H58.3971H59.8841V13.4012H58.0583Z" fill="#CC4517"/>
<path d="M54.8687 11.2709H57.316C55.6123 7.51765 52.1107 4.67376 47.8467 3.70203V5.85946C50.8682 6.69747 53.4003 8.6766 54.8687 11.2709Z" fill="#CC4517"/>
<path d="M47.8467 27.1219V29.2882C52.0354 28.3254 55.4805 25.5618 57.2313 21.9066H54.7652C53.2685 24.4117 50.7929 26.3106 47.8467 27.1219Z" fill="#CC4517"/>
<path d="M52.0822 21.915C52.5999 21.2642 53.0329 20.551 53.3529 19.7843C53.6353 19.1068 53.8236 18.3936 53.9271 17.6626C53.993 17.2792 54.0118 16.887 54.0118 16.4947C54.0118 16.1738 53.9836 15.8439 53.946 15.5319C53.8706 14.8009 53.6918 14.0877 53.4282 13.4101C53.1364 12.6345 52.7317 11.9302 52.2328 11.2794C51.1503 9.84413 49.6254 8.72084 47.837 8.09679C47.1404 7.84717 46.3968 7.67778 45.6344 7.60646V5.45795V3.36293V1.92761H43.4411V3.37184V5.45795V7.58863C42.6505 7.66887 41.8974 7.85608 41.1915 8.1057C39.4312 8.72975 37.9346 9.84413 36.8521 11.2616C36.3532 11.9124 35.9485 12.6256 35.6567 13.3923H33.3129C33.5294 12.6434 33.8494 11.9302 34.2165 11.2616C35.6755 8.68518 38.1793 6.71496 41.1915 5.85913V3.70169C36.9557 4.70017 33.4823 7.53514 31.7691 11.2616C31.4679 11.9392 31.2138 12.6613 31.0349 13.3923C30.8561 14.0788 30.7337 14.7919 30.6772 15.5141H32.8893H35.1295C35.0919 15.8261 35.0825 16.1559 35.0825 16.4769C35.0825 16.8781 35.1107 17.2614 35.1672 17.6447H32.8987H30.6961C30.762 18.3669 30.8843 19.0801 31.082 19.7665C31.2703 20.4975 31.5432 21.2107 31.8727 21.8972C33.6047 25.5256 37.031 28.2893 41.1915 29.261V27.0946C38.264 26.2745 35.8073 24.3845 34.3483 21.8972C33.9435 21.2197 33.6235 20.5154 33.3693 19.7665H35.7508C36.0708 20.5421 36.485 21.2464 37.0121 21.8972C38.0852 23.2255 39.516 24.2597 41.2009 24.8659C41.9163 25.1155 42.6693 25.3027 43.4506 25.383V27.5047V29.5998V31.0083H45.6532V29.6087V27.5137V25.383C46.4156 25.3116 47.1592 25.1423 47.8558 24.8926C49.5313 24.3043 51.0091 23.2612 52.0822 21.915ZM43.9589 20.6224C43.3094 21.1483 42.3304 21.0681 41.7751 20.453C41.7657 20.4351 41.7468 20.4173 41.7374 20.3995L38.9983 16.8157C38.8382 16.6195 38.7347 16.4056 38.7065 16.2005C38.697 16.1827 38.697 16.1649 38.6876 16.147C38.6782 16.1203 38.6688 16.0846 38.6688 16.0579C38.6688 16.04 38.6594 16.0222 38.6594 16.0133C38.6594 15.9955 38.65 15.9776 38.65 15.9598C38.65 15.942 38.65 15.9242 38.65 15.9063C38.65 15.8885 38.65 15.8707 38.65 15.8439C38.65 15.8261 38.65 15.8083 38.65 15.7993C38.65 15.7726 38.65 15.7369 38.6594 15.7102C38.6594 15.6924 38.6594 15.6835 38.6688 15.6656C38.6688 15.6478 38.6782 15.621 38.6782 15.6032C38.6782 15.5854 38.6876 15.5765 38.6876 15.5586C38.697 15.5319 38.697 15.5141 38.7065 15.4873C38.7065 15.4784 38.7159 15.4695 38.7159 15.4606C38.7253 15.4249 38.7441 15.3982 38.7535 15.3625C38.7629 15.3536 38.7629 15.3447 38.7723 15.3268C38.7818 15.309 38.7912 15.2823 38.81 15.2644C38.8194 15.2555 38.8194 15.2466 38.8288 15.2288C38.8476 15.202 38.8665 15.1753 38.8853 15.1485C38.8853 15.1485 38.8853 15.1396 38.8947 15.1396C38.9135 15.1129 38.9418 15.0861 38.9606 15.0505C38.97 15.0416 38.9794 15.0327 38.9794 15.0237C38.9983 15.0059 39.0171 14.9881 39.0359 14.9613C39.0453 14.9524 39.0547 14.9435 39.0641 14.9346C39.0924 14.9078 39.1206 14.8811 39.1583 14.8633C39.6572 14.4978 40.3443 14.5334 40.7961 14.9078L42.9987 16.7443C43.1588 16.6106 48.75 12.162 48.75 12.162C49.1924 11.8322 49.8419 11.9035 50.1902 12.3225C50.2184 12.3492 50.2373 12.3849 50.2561 12.4116C50.2655 12.4206 50.2655 12.4295 50.2749 12.4384C50.2937 12.4651 50.3032 12.4919 50.3126 12.5186C50.3126 12.5275 50.322 12.5365 50.322 12.5365C50.3408 12.5721 50.3502 12.6078 50.3596 12.6345C50.3596 12.6434 50.3596 12.6434 50.369 12.6524C50.3785 12.6791 50.3879 12.7148 50.3879 12.7415C50.3879 12.7504 50.3879 12.7593 50.3879 12.7682C50.3973 12.8039 50.3973 12.8396 50.3973 12.8752C50.3973 12.9109 50.3973 12.9465 50.3973 12.9822C50.3973 12.9911 50.3973 12.9911 50.3973 13C50.3973 13.0268 50.3879 13.0535 50.3879 13.0803C50.4444 13.3299 50.3502 13.5795 50.1243 13.8024L50.1055 13.8202L43.9589 20.6224Z" fill="#CC4517"/>
</svg>
